<svg width="428" height="117" viewBox="0 0 428 117" fill="none" xmlns="http://www.w3.org/2000/svg">
<g clip-path="url(#clip0_211_1537)">
<path d="M99.012 17.1344C88.1248 6.21247 73.3878 0.0907898 58.0324 0.111687C42.677 0.132583 27.9564 6.29435 17.0985 17.2459C6.24054 28.1974 0.131443 43.0449 0.110725 58.5327C0.0900066 74.0205 6.15936 88.8846 16.988 99.8656C27.8752 110.788 42.6122 116.909 57.9676 116.888C73.323 116.867 88.0436 110.706 98.9015 99.7541C109.759 88.8026 115.869 73.9551 115.889 58.4673C115.91 42.9795 109.841 28.1155 99.012 17.1344ZM113.706 58.7083C113.706 89.6891 88.716 114.894 58 114.894C27.284 114.894 2.29408 89.6891 2.29408 58.7083C2.29408 27.7275 27.284 2.52218 58 2.52218C88.716 2.52218 113.706 27.7275 113.706 58.7083Z" fill="white"/>
<path d="M42.9133 74.2375L44.8794 66.9385H45.7561L47.6594 74.2171L49.5202 66.9385H50.3099L48.1454 75.3607H47.2524L45.3066 67.9188L43.3608 75.3607H42.48L40.3378 66.9385H41.1274L42.9133 74.2375Z" fill="white"/>
<path d="M50.9477 72.8263H51.6887C51.7576 73.5507 52.0161 74.0844 52.4642 74.4275C52.8692 74.7311 53.4172 74.8829 54.1084 74.8829C54.7995 74.8829 55.3394 74.7154 55.7282 74.3805C55.897 74.2286 56.0303 74.0408 56.1185 73.8307C56.2067 73.6206 56.2477 73.3933 56.2384 73.1654C56.2384 72.456 55.8024 71.9536 54.9304 71.6582L52.4744 70.9577C51.5942 70.5683 51.1542 69.9066 51.1542 68.9726C51.1515 68.6709 51.2144 68.3722 51.3386 68.0977C51.4628 67.8231 51.6452 67.5795 51.873 67.3838C52.3981 66.9086 53.1007 66.671 53.9808 66.671C54.8609 66.671 55.5676 66.9283 56.1007 67.443C56.3344 67.6756 56.5178 67.9544 56.6394 68.2619C56.761 68.5694 56.8182 68.899 56.8074 69.2299H56.0198C56.0325 68.961 55.9827 68.6928 55.8744 68.4468C55.7662 68.2007 55.6024 67.9835 55.3961 67.8126C54.9903 67.5 54.4889 67.3404 53.9788 67.3613C53.293 67.3613 52.7652 67.5328 52.3954 67.8759C52.235 68.0186 52.1075 68.1948 52.0218 68.3924C51.9361 68.5899 51.8943 68.804 51.8993 69.0196V69.2647C51.9925 69.8392 52.4885 70.2511 53.3875 70.5002C54.1785 70.7262 54.9736 70.9475 55.7727 71.164C56.16 71.3196 56.4894 71.5935 56.7148 71.9472C56.9402 72.3009 57.0505 72.7168 57.0301 73.1368C57.048 73.48 56.9861 73.8228 56.8494 74.1377C56.7126 74.4525 56.5048 74.7308 56.2425 74.9503C55.7174 75.3832 54.9648 75.599 53.9848 75.5977C53.0818 75.5977 52.3562 75.3642 51.8082 74.8972C51.2372 74.407 50.9517 73.7181 50.9517 72.8304" fill="white"/>
<path d="M59.2635 71.3539V74.6705H61.6264C62.4687 74.6705 63.0478 74.5404 63.3637 74.2804C63.6795 74.0204 63.8381 73.5915 63.8395 72.9938C63.8395 72.4274 63.662 72.0121 63.307 71.748C62.9519 71.4839 62.3924 71.3518 61.6284 71.3518L59.2635 71.3539ZM59.2635 67.6268V70.6615H61.4401C61.9146 70.6864 62.3868 70.5812 62.8068 70.3573C63.0201 70.2254 63.1932 70.037 63.3075 69.8126C63.4218 69.5883 63.4727 69.3365 63.4548 69.0849C63.4548 68.5703 63.2962 68.204 62.9789 67.9862C62.632 67.7452 62.0246 67.6247 61.1566 67.6247L59.2635 67.6268ZM62.9081 70.8658C63.1987 70.9039 63.477 71.0076 63.7224 71.1692C63.9678 71.3308 64.1739 71.5461 64.3254 71.7991C64.5315 72.1698 64.6357 72.5893 64.6271 73.0142C64.6271 73.9182 64.3146 74.5643 63.6896 74.9523C63.1867 75.2431 62.6126 75.3846 62.0334 75.3607H58.4758V66.9385H61.5535C62.4727 66.9385 63.1598 67.1292 63.6147 67.5104C63.8241 67.6936 63.9893 67.9225 64.0977 68.1798C64.2061 68.4371 64.2549 68.7159 64.2404 68.9951C64.2551 69.443 64.1321 69.8846 63.8881 70.2592C63.7776 70.4246 63.6333 70.5642 63.465 70.6688C63.2967 70.7734 63.1082 70.8405 62.9121 70.8658H62.9081Z" fill="white"/>
<path d="M68.0227 74.2375L69.9888 66.9385H70.8655L72.7688 74.2171L74.6296 66.9385H75.4192L73.2547 75.3607H72.3618L70.416 67.9188L68.4702 75.3607H67.5894L65.4472 66.9385H66.2368L68.0227 74.2375Z" fill="white"/>
<path d="M74.3481 8.22614L74.8624 8.43036L74.3582 13.7402H74.3724L77.5615 9.48416L78.1972 9.73127L77.7174 15.0411H77.7315L80.8983 10.783L81.4126 10.9872L77.7822 15.7783L77.1747 15.5394L77.6607 10.2112H77.6465L74.4473 14.4754L73.8399 14.2365L74.3481 8.22614ZM69.029 10.8606C68.835 10.8154 68.6381 10.7841 68.4398 10.7667C68.2609 10.7494 68.0805 10.7556 67.9032 10.7851C67.7527 10.8081 67.6097 10.8669 67.4861 10.9566C67.3876 11.0369 67.3143 11.1442 67.2752 11.2657C67.236 11.3871 67.2326 11.5174 67.2654 11.6408C67.2945 11.737 67.3442 11.8256 67.4112 11.9001C67.4796 11.9752 67.5596 12.0387 67.6481 12.088C67.738 12.1394 67.8349 12.1772 67.9356 12.2003C68.1476 12.2572 68.3691 12.2683 68.5856 12.233C68.7518 12.2017 68.9084 12.1318 69.0432 12.0288C69.1667 11.9329 69.2671 11.81 69.3368 11.6694C69.4078 11.528 69.4615 11.3785 69.4967 11.2241L69.5534 10.977L69.029 10.8606ZM69.9098 11.3814C69.8693 11.5625 69.8342 11.7252 69.8045 11.8695C69.7748 12.0138 69.7485 12.15 69.7255 12.2779C69.7026 12.4018 69.683 12.5176 69.6668 12.6251C69.6506 12.7327 69.6385 12.8416 69.6304 12.9519L69.1869 12.8498C69.1981 12.6434 69.2272 12.4384 69.274 12.2371H69.2578C69.0897 12.4297 68.8716 12.5712 68.6281 12.6455C68.3624 12.7138 68.0839 12.7138 67.8182 12.6455C67.6606 12.6093 67.5082 12.553 67.3646 12.4781C67.2252 12.4068 67.1002 12.3098 66.9961 12.1922C66.8827 12.0636 66.8034 11.9081 66.7655 11.7403C66.7277 11.5725 66.7325 11.3978 66.7795 11.2323C66.8238 10.9905 66.9533 10.7729 67.1439 10.6196C67.3233 10.488 67.5318 10.4025 67.7514 10.3705C67.9838 10.3382 68.2195 10.3382 68.4519 10.3705C68.6922 10.4004 68.9021 10.4358 69.0816 10.4767L69.6344 10.6033L69.685 10.3807C69.7266 10.2535 69.7357 10.1179 69.7117 9.98617C69.6876 9.85448 69.6311 9.73101 69.5474 9.62712C69.3623 9.43252 69.1216 9.30113 68.8589 9.25134C68.4486 9.15056 68.0158 9.20658 67.644 9.4086L67.4416 9.01853C67.6688 8.8834 67.9237 8.80237 68.1867 8.78163C68.4449 8.75209 68.7061 8.7652 68.9602 8.82043C69.3431 8.88787 69.6918 9.0853 69.9483 9.38001C70.1642 9.65231 70.2196 10.022 70.1143 10.4889L69.9098 11.3814ZM61.0331 7.69311L61.5535 7.76051L62.0374 11.0281H62.0536L63.5074 8.03008L63.965 8.09135L64.6494 11.3773H64.6656L65.9574 8.35684L66.4393 8.4222L64.8498 12.0206L64.3517 11.9532L63.6593 8.74078H63.6431L62.1994 11.6653L61.7013 11.5979L61.0331 7.69311ZM60.2414 8.23839L59.1703 8.21797L59.1237 10.6809C59.1183 10.7522 59.1271 10.8238 59.1497 10.8915C59.1723 10.9593 59.2083 11.0217 59.2554 11.0751C59.3054 11.1241 59.3647 11.1624 59.4298 11.1877C59.4948 11.2129 59.5643 11.2247 59.634 11.2221C59.7287 11.2241 59.8233 11.2138 59.9154 11.1915C60.0088 11.1689 60.1002 11.1389 60.1888 11.1016L60.2212 11.5448C60.1169 11.5789 60.0108 11.6069 59.9033 11.6285C59.7996 11.6517 59.6937 11.6634 59.5874 11.6632C59.4348 11.6643 59.2835 11.6351 59.142 11.5775C59.0293 11.533 58.9282 11.4631 58.8464 11.3732C58.7714 11.2826 58.7169 11.1767 58.6864 11.0628C58.6523 10.9385 58.6366 10.8098 58.6398 10.6809L58.6844 8.21797L57.8745 8.20368V7.76255L58.6844 7.77685L58.7046 6.68833H59.1906L59.1703 7.77685L60.2414 7.79727V8.23839ZM54.8839 10.6339C54.9873 10.8305 55.1495 10.9891 55.3475 11.0873C55.5442 11.1884 55.7626 11.2389 55.9833 11.2344C56.0881 11.2322 56.1919 11.2136 56.2911 11.1792C56.3894 11.1463 56.4818 11.0973 56.5644 11.0342C56.6458 10.975 56.7146 10.9 56.7669 10.8137C56.8173 10.725 56.8419 10.6238 56.8378 10.5216C56.8416 10.4473 56.8278 10.3732 56.7975 10.3053C56.7672 10.2375 56.7213 10.1779 56.6636 10.1316C56.5423 10.0389 56.405 9.96965 56.2587 9.92733C56.0815 9.87828 55.9017 9.83942 55.7201 9.81092C55.535 9.7822 55.3542 9.73076 55.1815 9.65775C55.0264 9.58961 54.8881 9.4878 54.7765 9.35958C54.6537 9.2025 54.5911 9.00599 54.6004 8.80614C54.5935 8.63834 54.6298 8.47161 54.7057 8.32213C54.7762 8.18727 54.875 8.0695 54.9952 7.97699C55.1171 7.88518 55.2542 7.81602 55.4002 7.77276C55.5499 7.72658 55.7053 7.70183 55.8618 7.69924C56.1404 7.68588 56.418 7.7398 56.6717 7.85649C56.9016 7.97063 57.0885 8.15697 57.2043 8.38748L56.771 8.65705C56.6887 8.49868 56.5673 8.36435 56.4186 8.26698C56.1695 8.13422 55.8786 8.10561 55.6087 8.18734C55.5191 8.21412 55.4338 8.25403 55.3556 8.30579C55.2812 8.35635 55.2179 8.42167 55.1693 8.49776C55.1189 8.57597 55.0934 8.66793 55.0965 8.76121C55.0923 8.833 55.1058 8.90471 55.1358 8.96993C55.1659 9.03515 55.2115 9.09185 55.2686 9.13494C55.3918 9.21965 55.5289 9.28186 55.6735 9.31874C55.8503 9.36468 56.0294 9.40081 56.2101 9.42698C56.3952 9.453 56.5763 9.50312 56.7487 9.57606C56.9098 9.64525 57.0522 9.7524 57.1638 9.88852C57.2876 10.0592 57.3498 10.2675 57.3399 10.4787C57.3475 10.6551 57.3135 10.8308 57.2407 10.9913C57.1717 11.1353 57.0714 11.2617 56.9471 11.361C56.8114 11.4672 56.6567 11.5463 56.4915 11.5938C56.3264 11.6468 56.1545 11.675 55.9813 11.6775C55.6754 11.6872 55.3712 11.6286 55.0904 11.506C54.8276 11.388 54.609 11.1884 54.4667 10.9362L54.8839 10.6339ZM51.5207 6.1696L52.1646 6.08179L51.2413 7.39495L50.8363 7.45009L51.5207 6.1696ZM50.0608 9.46986C50.0514 9.39907 50.0372 9.31397 50.0183 9.21458C49.9994 9.1152 49.9818 9.01445 49.9656 8.91233C49.9494 8.81022 49.9326 8.71492 49.915 8.62642C49.8975 8.53792 49.8853 8.46985 49.8786 8.4222L50.3605 8.35684C50.3848 8.49299 50.4064 8.62914 50.4253 8.76529C50.4346 8.8499 50.4522 8.93336 50.4779 9.01445H50.5022C50.5797 8.78162 50.7199 8.57514 50.9072 8.41811C51.1223 8.23488 51.3866 8.12041 51.6665 8.08931C51.9081 8.0473 52.1562 8.06197 52.3913 8.1322C52.5731 8.1913 52.7373 8.29519 52.8692 8.43445C52.9968 8.57467 53.0941 8.74022 53.1547 8.9205C53.2214 9.11253 53.2682 9.31101 53.2944 9.51275L53.59 11.7429L53.1081 11.8082L52.8246 9.59853C52.805 9.45007 52.7718 9.30376 52.7254 9.16149C52.6831 9.02919 52.618 8.90545 52.5331 8.79593C52.4498 8.69089 52.34 8.61046 52.2152 8.56311C52.0597 8.5091 51.8932 8.49575 51.7313 8.52431C51.5594 8.54669 51.3931 8.60141 51.2413 8.68564C51.0926 8.76787 50.965 8.88395 50.8687 9.02466C50.7675 9.18071 50.6987 9.35575 50.6662 9.5393C50.6242 9.76717 50.6208 10.0006 50.6561 10.2296L50.9051 12.1023L50.4232 12.1677L50.0608 9.46986ZM48.3762 10.2868C48.3414 10.1272 48.2723 9.97731 48.1737 9.84768C48.0765 9.72056 47.9562 9.61315 47.8194 9.53113C47.6772 9.44716 47.5206 9.39103 47.3577 9.36571C47.1861 9.33785 47.0107 9.3441 46.8414 9.38409C46.6144 9.42784 46.404 9.53464 46.234 9.69247C46.0972 9.82356 45.9871 9.98034 45.91 10.154C45.8462 10.2971 45.8052 10.4494 45.7885 10.6054C45.7765 10.6989 45.7765 10.7936 45.7885 10.8872L48.3762 10.2868ZM49.0727 11.6612C48.9686 11.9643 48.7794 12.2304 48.528 12.427C48.2741 12.6175 47.9828 12.7511 47.6736 12.8191C47.4145 12.8832 47.1453 12.8943 46.8819 12.8518C46.6406 12.8117 46.4103 12.7213 46.2056 12.5863C45.9994 12.4484 45.8237 12.269 45.6893 12.0594C45.5421 11.8283 45.4371 11.5723 45.3795 11.3038C45.3171 11.0431 45.3033 10.773 45.339 10.5073C45.3719 10.2608 45.4531 10.0234 45.5779 9.80888C45.7018 9.59771 45.8664 9.41369 46.0619 9.26768C46.2707 9.11327 46.5094 9.00473 46.7624 8.94909C47.0155 8.88472 47.2794 8.87636 47.5359 8.92459C47.761 8.96847 47.9748 9.05886 48.1636 9.19008C48.3451 9.31766 48.4999 9.48004 48.6192 9.66796C48.7392 9.85548 48.8256 10.0629 48.8743 10.2806L48.9512 10.6156L45.8857 11.3303C45.9199 11.4605 45.9695 11.5859 46.0335 11.7041C46.1146 11.8593 46.2238 11.9978 46.3555 12.1125C46.5042 12.2418 46.678 12.3384 46.8657 12.3964C47.1016 12.4621 47.3507 12.4621 47.5865 12.3964C47.8303 12.3356 48.056 12.2165 48.2446 12.0492C48.4329 11.8915 48.5733 11.6834 48.6495 11.4488L49.0727 11.6612ZM42.2107 14.0098L43.4256 10.4154L41.4008 11.0792L41.2651 10.6584L43.9338 9.78437L44.0229 10.0642L42.8242 13.6544L45.0515 12.9274L45.1871 13.3481L42.3018 14.2957L42.2107 14.0098ZM41.7815 13.8872C41.7013 14.1471 41.5627 14.3847 41.3765 14.5816C41.1966 14.7707 40.9784 14.9184 40.7367 15.0145C40.4856 15.1196 40.2168 15.1751 39.945 15.1779C39.6932 15.181 39.4435 15.1309 39.212 15.0309C38.9832 14.9293 38.7767 14.7828 38.6046 14.6C38.2335 14.1967 38.0229 13.6695 38.0133 13.1193C38.0121 12.8664 38.061 12.6157 38.1571 12.3821C38.2557 12.1501 38.4012 11.9415 38.5843 11.7694C38.7852 11.5757 39.0219 11.4238 39.2808 11.3222C39.5262 11.2202 39.7915 11.1762 40.0563 11.1935C40.3209 11.2107 40.5796 11.28 40.8177 11.3977L40.5565 11.8246C40.379 11.7341 40.1871 11.676 39.9895 11.653C39.8009 11.6325 39.6102 11.6599 39.4347 11.7327C39.2372 11.8093 39.0579 11.9269 38.9083 12.0778C38.7723 12.2161 38.6656 12.3808 38.5944 12.5618C38.5252 12.7419 38.4935 12.9345 38.5013 13.1275C38.5201 13.5394 38.6772 13.9326 38.9468 14.2426C39.0737 14.3873 39.2287 14.5041 39.4023 14.5857C39.5778 14.6672 39.768 14.7117 39.9612 14.7164C40.1696 14.7196 40.3764 14.6793 40.5686 14.5979C40.7521 14.5257 40.9139 14.4068 41.0384 14.2528C41.1613 14.0996 41.2529 13.9233 41.3077 13.7341L41.7815 13.8872ZM36.6486 14.3324C36.5742 14.1873 36.4692 14.0605 36.3409 13.9608C36.2145 13.863 36.0709 13.7903 35.9177 13.7463C35.759 13.7018 35.5935 13.6879 35.4297 13.7055C35.2568 13.7228 35.089 13.7742 34.9357 13.8566C34.7256 13.9562 34.5474 14.1133 34.4214 14.31C34.3203 14.4713 34.2515 14.651 34.2189 14.8389C34.1934 14.9972 34.1934 15.1585 34.2189 15.3168C34.23 15.4106 34.2532 15.5026 34.2877 15.5905L36.6486 14.3324ZM37.661 15.4822C37.6366 15.8021 37.5206 16.1079 37.3269 16.3624C37.1296 16.6075 36.8833 16.808 36.6041 16.9506C36.368 17.0836 36.1076 17.167 35.8387 17.1957C35.5946 17.2189 35.3484 17.1904 35.1159 17.1119C34.8819 17.0318 34.6669 16.9039 34.4841 16.7362C34.2837 16.5509 34.1177 16.331 33.9941 16.0867C33.8701 15.8469 33.7918 15.5857 33.7633 15.3168C33.7334 15.0697 33.7527 14.8191 33.82 14.5796C33.8867 14.3436 33.9996 14.1234 34.1521 13.9322C34.318 13.728 34.5251 13.5616 34.7595 13.4441C34.9877 13.3168 35.2405 13.2409 35.5006 13.2215C35.7288 13.2064 35.9577 13.2391 36.1728 13.3174C36.3804 13.3943 36.571 13.5115 36.7337 13.6626C36.8976 13.8103 37.0347 13.9859 37.1386 14.1813L37.2966 14.4856L34.5105 15.9622C34.5764 16.0788 34.6559 16.1872 34.7474 16.2848C34.8622 16.4132 34.9994 16.5191 35.1523 16.5973C35.3288 16.6839 35.5211 16.7325 35.7172 16.7402C35.9616 16.7435 36.2023 16.68 36.4138 16.5564C36.6357 16.4377 36.8259 16.2667 36.9685 16.0581C37.1135 15.8576 37.1992 15.6196 37.2156 15.3719L37.661 15.4822ZM30.5277 14.2834C30.4833 14.2124 30.4646 14.1281 30.4748 14.0448C30.485 13.9615 30.5235 13.8843 30.5837 13.8264C30.6439 13.7684 30.7222 13.7333 30.8052 13.7269C30.8882 13.7206 30.9708 13.7434 31.039 13.7915C31.1072 13.8396 31.1568 13.91 31.1794 13.9908C31.202 14.0716 31.1961 14.1578 31.1628 14.2347C31.1296 14.3117 31.0709 14.3747 30.9969 14.4129C30.9228 14.4512 30.8379 14.4625 30.7565 14.4448C30.71 14.4343 30.6662 14.4144 30.6275 14.3863C30.5889 14.3582 30.5563 14.3225 30.5317 14.2814L30.5277 14.2834ZM31.4348 15.4741L31.8398 15.2086L33.8645 18.3822L33.4596 18.6477L31.4348 15.4741ZM28.511 19.775C28.6283 19.9447 28.7793 20.088 28.9544 20.1957C29.1238 20.2993 29.3116 20.3686 29.5072 20.3999C29.7042 20.4319 29.9055 20.4264 30.1005 20.3836C30.3076 20.3383 30.5033 20.2508 30.6755 20.1263C30.8501 20.0061 30.9978 19.8502 31.1088 19.6688C31.2121 19.5034 31.2809 19.3186 31.3113 19.1256C31.3378 18.9337 31.3247 18.7383 31.2728 18.5517C31.1592 18.1512 30.9125 17.8023 30.5743 17.5633C30.4176 17.4516 30.2397 17.3737 30.0519 17.3345C29.8628 17.2955 29.6679 17.2955 29.4789 17.3345C29.2714 17.3787 29.0755 17.4663 28.9038 17.5919C28.7299 17.7129 28.5825 17.8686 28.4705 18.0493C28.3644 18.2199 28.2909 18.409 28.2539 18.6069C28.2157 18.8031 28.2157 19.0049 28.2539 19.2011C28.2981 19.4087 28.3858 19.6043 28.511 19.775ZM27.0754 18.4843L27.4804 18.2025L27.859 18.7437H27.8732C27.8601 18.5948 27.8731 18.4448 27.9117 18.3005C27.9494 18.1578 28.0052 18.0205 28.0777 17.8921C28.1511 17.7635 28.2395 17.6442 28.3409 17.5367C28.4398 17.4306 28.549 17.3348 28.6669 17.2508C28.8865 17.0911 29.1347 16.976 29.3979 16.9118C29.64 16.8522 29.8917 16.8431 30.1374 16.8848C30.3832 16.9266 30.618 17.0185 30.8274 17.1548C31.2794 17.462 31.6031 17.9267 31.7365 18.4598C31.7958 18.7066 31.8041 18.963 31.7609 19.2132C31.7177 19.4634 31.624 19.7019 31.4854 19.9139C31.3368 20.1421 31.1456 20.3391 30.9225 20.4939C30.8041 20.5744 30.6779 20.6428 30.5459 20.6981C30.4111 20.7577 30.2697 20.8009 30.1248 20.8268C29.9805 20.8524 29.8335 20.8593 29.6874 20.8472C29.5402 20.8352 29.3963 20.7972 29.2622 20.7349H29.248L30.6897 22.8016L30.2847 23.0834L27.0754 18.4843ZM26.1947 23.8697L25.897 20.0875L24.2974 21.5048L24.0099 21.1719L26.1197 19.3073L26.3222 19.5279L26.6259 23.304L28.3834 21.7519L28.673 22.0848L26.385 24.0984L26.1947 23.8697ZM23.9674 23.3551C23.8522 23.242 23.714 23.1556 23.5624 23.1018C23.4114 23.0503 23.252 23.0281 23.0927 23.0365C22.928 23.046 22.7665 23.0869 22.6169 23.157C22.4588 23.2299 22.3165 23.3333 22.1977 23.4613C22.0328 23.6246 21.9164 23.8311 21.8616 24.0576C21.8197 24.2433 21.8142 24.4355 21.8454 24.6233C21.8705 24.7785 21.9197 24.9288 21.9912 25.0685C22.0314 25.1538 22.0825 25.2334 22.1431 25.3054L23.9674 23.3551ZM25.3017 24.1127C25.381 24.4233 25.369 24.7504 25.2673 25.0542C25.1597 25.3544 24.9899 25.628 24.7692 25.8568C24.5885 26.055 24.3702 26.2147 24.1274 26.3265C23.9038 26.4277 23.6617 26.4806 23.4167 26.4817C23.1693 26.4817 22.9246 26.4303 22.6979 26.3306C22.4486 26.2205 22.221 26.0662 22.0256 25.8752C21.831 25.6926 21.6717 25.4752 21.5559 25.2339C21.4487 25.0102 21.3868 24.7672 21.3736 24.5191C21.3613 24.274 21.3978 24.0289 21.481 23.7982C21.5692 23.5536 21.7071 23.3304 21.8859 23.1427C22.0611 22.9482 22.2759 22.7943 22.5156 22.6913C22.7272 22.6025 22.9547 22.5586 23.1838 22.5627C23.4044 22.5683 23.6218 22.6175 23.8236 22.7077C24.0239 22.7955 24.2075 22.9179 24.3663 23.0691L24.6133 23.306L22.4488 25.6097C22.5486 25.6989 22.6588 25.7757 22.7768 25.8384C22.9294 25.9227 23.0963 25.9774 23.2688 25.9998C23.4637 26.0249 23.6616 26.0089 23.85 25.9528C24.0857 25.8753 24.2958 25.734 24.4574 25.5443C24.6295 25.3599 24.7552 25.1365 24.8239 24.8929C24.8975 24.6563 24.9031 24.4035 24.8401 24.1638L25.3017 24.1127ZM20.3248 30.1659L21.08 29.1938C21.2459 28.9951 21.3743 28.7674 21.4587 28.5219C21.5147 28.3524 21.5313 28.1721 21.5073 27.995C21.4863 27.8551 21.4328 27.7222 21.3514 27.607C21.2835 27.5108 21.2032 27.4243 21.1124 27.3497C20.9674 27.2286 20.7949 27.1458 20.6103 27.1087C20.4487 27.0788 20.2825 27.0865 20.1243 27.1312C19.9667 27.1771 19.819 27.2526 19.689 27.3538C19.555 27.4563 19.4345 27.5757 19.3306 27.7091L18.5207 28.7466L20.3248 30.1659ZM18.1421 28.4402L18.8285 27.558C18.971 27.3792 19.0801 27.1758 19.1504 26.9576C19.2009 26.8044 19.2195 26.6425 19.2051 26.4817C19.1934 26.3564 19.1502 26.2362 19.0796 26.1325C18.9224 25.9069 18.6904 25.7454 18.4256 25.6771C18.2872 25.6477 18.1437 25.654 18.0084 25.6955C17.8708 25.7379 17.7428 25.8073 17.6318 25.8997C17.5086 26.0039 17.3966 26.121 17.2977 26.2489L16.5668 27.1884L18.1421 28.4402ZM15.8581 27.3211L16.8705 26.0079C17.0058 25.8366 17.154 25.6761 17.3139 25.528C17.4694 25.3796 17.6534 25.2649 17.8546 25.191C18.0567 25.12 18.2733 25.1017 18.4843 25.1379C18.75 25.1927 18.9974 25.315 19.2031 25.4933C19.4212 25.659 19.5757 25.8956 19.6404 26.1631C19.6996 26.4631 19.6508 26.7744 19.5027 27.0413H19.5149C19.6364 26.9074 19.7803 26.7961 19.9401 26.7125C20.0895 26.6346 20.2525 26.5867 20.42 26.5716C20.5904 26.5578 20.7618 26.5787 20.9241 26.6329C21.1028 26.6923 21.2695 26.7836 21.4162 26.9024C21.6454 27.0679 21.8248 27.2941 21.9345 27.556C22.0186 27.7741 22.0498 28.0094 22.0256 28.2421C21.9982 28.4687 21.9296 28.6882 21.8231 28.8895C21.7283 29.0796 21.6157 29.2601 21.487 29.4287L20.3572 30.8828L15.8581 27.3211ZM16.2975 33.7807C16.198 33.9554 16.1107 34.1369 16.0363 34.3239C15.9683 34.4915 15.922 34.6672 15.8986 34.8468C15.877 34.9991 15.8916 35.1545 15.9411 35.3001C15.9892 35.4179 16.07 35.5192 16.1738 35.5917C16.2777 35.6641 16.4001 35.7047 16.5263 35.7086C16.6264 35.7088 16.7253 35.6864 16.8158 35.6432C16.907 35.5992 16.9904 35.5406 17.0629 35.4696C17.1376 35.3983 17.2017 35.3165 17.2532 35.2266C17.3676 35.04 17.4421 34.8313 17.4719 34.6139C17.4916 34.445 17.4722 34.2737 17.4152 34.1136C17.3598 33.9662 17.2719 33.8335 17.158 33.7256C17.0444 33.6159 16.9179 33.5205 16.7814 33.4417L16.5628 33.3151L16.2975 33.7807ZM17.0366 33.0843L17.4678 33.3294L17.8262 33.5213C17.9369 33.5785 18.0415 33.6309 18.1401 33.6786C18.2386 33.7262 18.3385 33.7698 18.4397 33.8093L18.215 34.2075C18.0236 34.1367 17.8386 34.0492 17.6622 33.9461V33.9604C17.7954 34.1791 17.8655 34.4308 17.8647 34.6875C17.8469 34.9624 17.7613 35.2284 17.6156 35.4615C17.5358 35.6026 17.4385 35.733 17.3261 35.8495C17.2177 35.963 17.0893 36.0551 16.9475 36.1211C16.7965 36.1919 16.6304 36.2236 16.4642 36.2132C16.298 36.2029 16.137 36.1509 15.9958 36.0619C15.7744 35.9529 15.6006 35.7653 15.5078 35.535C15.4348 35.3226 15.4147 35.0954 15.4491 34.8733C15.4855 34.639 15.5536 34.4109 15.6516 34.1953C15.7372 33.9986 15.8324 33.8064 15.9371 33.6194L16.2185 33.1231L16.0161 33.0087C15.9073 32.9319 15.7812 32.8837 15.6493 32.8687C15.5173 32.8538 15.3838 32.8724 15.2608 32.923C15.0223 33.045 14.8276 33.2392 14.704 33.4785C14.4911 33.844 14.419 34.2758 14.5015 34.6915L14.0723 34.7732C14.01 34.5174 14.0058 34.2507 14.0601 33.9931C14.1077 33.7352 14.1966 33.4869 14.3233 33.2579C14.4967 32.9095 14.7823 32.6308 15.1333 32.4675C15.4532 32.3314 15.8197 32.3859 16.2327 32.6309L17.0366 33.0843ZM13.7685 36.8727L14.0662 37.8039L13.5843 37.5507L13.2866 36.6194L10.6544 35.2429L10.8792 34.808L13.074 35.9577L12.7683 35.0244L13.2502 35.2777L13.5661 36.2069L16.336 37.6589L16.1112 38.0939L13.7685 36.8727ZM12.5537 41.7026C12.7428 41.7782 12.9436 41.8196 13.1469 41.8251C13.3389 41.8303 13.5298 41.7956 13.7078 41.723C13.883 41.6472 14.0413 41.5368 14.1735 41.3983C14.4678 41.086 14.6279 40.6691 14.619 40.2383C14.6118 40.0437 14.5656 39.8527 14.4833 39.6767C14.4001 39.5025 14.2823 39.3474 14.1371 39.2212C13.8258 38.9541 13.4339 38.8014 13.0255 38.7883C12.8335 38.783 12.6426 38.8177 12.4646 38.8904C12.2869 38.9642 12.1258 39.0732 11.9908 39.211C11.6965 39.5233 11.5364 39.9402 11.5453 40.371C11.5531 40.5657 11.5999 40.7567 11.683 40.9326C11.7661 41.1069 11.884 41.2619 12.0293 41.3881C12.1844 41.5226 12.362 41.6284 12.5537 41.7005V41.7026ZM12.3775 42.16C12.1243 42.0645 11.8918 41.9202 11.6931 41.7352C11.5089 41.5624 11.3609 41.354 11.2578 41.1226C11.1553 40.8905 11.1022 40.6394 11.1019 40.3853C11.1005 40.1112 11.1514 39.8395 11.2517 39.5848C11.3465 39.3293 11.4895 39.0949 11.6729 38.8945C11.8435 38.7078 12.0503 38.5585 12.2806 38.4559C12.5108 38.3533 12.7596 38.2996 13.0113 38.2981C13.5568 38.3002 14.0824 38.5053 14.4873 38.8741C14.6722 39.0477 14.8196 39.2579 14.9203 39.4916C15.021 39.7252 15.0728 39.9774 15.0725 40.2321C15.0741 40.5049 15.0232 40.7754 14.9227 41.0286C14.8271 41.2853 14.6834 41.521 14.4995 41.723C14.3296 41.9105 14.1227 42.0601 13.8921 42.1621C13.6616 42.2614 13.4138 42.3135 13.1631 42.3152C12.8924 42.3157 12.6242 42.263 12.3735 42.16H12.3775ZM7.11307 44.7394L7.24266 44.2656L11.1809 45.3684L10.0429 43.1219L10.2333 42.4276L11.3651 44.7659L13.8961 43.2159L13.6936 43.9327L11.2376 45.3929L13.1449 45.9259L13.0153 46.3997L7.11307 44.7394ZM11.849 50.1431L9.40716 47.2534L8.93133 49.3507L8.5041 49.2527L9.12976 46.4937L9.41526 46.559L11.8571 49.4386L12.3775 47.141L12.8047 47.2391L12.1325 50.2064L11.849 50.1431ZM10.5896 53.8559C10.8327 53.7595 11.0434 53.5951 11.1971 53.3821C11.3492 53.1619 11.4451 52.9073 11.4765 52.6408C11.5005 52.4697 11.4957 52.2957 11.4623 52.1262C11.4329 51.9705 11.3752 51.8216 11.2922 51.6871C11.2115 51.5582 11.1046 51.4482 10.9784 51.3644C10.8431 51.2756 10.6892 51.2197 10.5289 51.201C10.358 51.1709 10.1822 51.1914 10.0227 51.2602C9.88089 51.3286 9.7568 51.4293 9.66026 51.5543C9.55321 51.6926 9.46091 51.8418 9.38488 51.9995C9.30254 52.167 9.21953 52.3399 9.13584 52.5183C9.05214 52.6966 8.96103 52.8689 8.86249 53.035C8.76582 53.197 8.64494 53.343 8.5041 53.4679C8.35991 53.5952 8.18993 53.6893 8.00601 53.7436C7.78026 53.8048 7.54417 53.8166 7.31353 53.7783C7.08033 53.7513 6.85685 53.6687 6.66155 53.5373C6.48263 53.415 6.33318 53.2538 6.22419 53.0656C6.1138 52.8719 6.03967 52.6594 6.00552 52.4386C5.97048 52.203 5.97048 51.9635 6.00552 51.7279C6.03919 51.4287 6.13141 51.1393 6.27684 50.8763C6.43183 50.6172 6.65368 50.4055 6.91869 50.2636L7.18597 50.7701C6.99511 50.8661 6.82933 51.006 6.70204 51.1786C6.5781 51.3668 6.50164 51.5827 6.47932 51.8076C6.45539 51.9748 6.45539 52.1447 6.47932 52.312C6.50057 52.4655 6.55001 52.6138 6.6251 52.749C6.69865 52.878 6.79961 52.9889 6.92072 53.0738C7.0581 53.1669 7.21581 53.225 7.38035 53.2433C7.61664 53.2915 7.86227 53.2446 8.06472 53.1126C8.24521 52.9805 8.39512 52.8105 8.5041 52.6143C8.62799 52.3943 8.73756 52.1664 8.83212 51.9321C8.92826 51.6932 9.0505 51.4658 9.19658 51.2541C9.33681 51.0516 9.52282 50.8857 9.73922 50.7701C10.008 50.6449 10.309 50.6078 10.5998 50.6639C10.8363 50.6914 11.0635 50.7731 11.2639 50.9029C11.4446 51.0227 11.5978 51.18 11.7134 51.3644C11.8293 51.5516 11.9084 51.7597 11.9462 51.9771C11.9875 52.2035 11.9929 52.4351 11.9624 52.6633C11.9188 53.0228 11.8045 53.3699 11.6263 53.6844C11.4422 53.9957 11.1748 54.2483 10.8549 54.4135L10.5896 53.8559ZM9.56104 58.7389C9.56401 58.94 9.58092 59.1406 9.61166 59.3394C9.63849 59.5186 9.68817 59.6937 9.75947 59.8601C9.8179 60.002 9.90879 60.128 10.0247 60.2277C10.1258 60.3043 10.2467 60.3497 10.3729 60.3584C10.499 60.3671 10.6249 60.3387 10.7354 60.2767C10.8211 60.2255 10.8944 60.1558 10.95 60.0725C11.0064 59.988 11.0488 59.8949 11.0756 59.7968C11.1032 59.6965 11.1162 59.5926 11.1141 59.4884C11.1173 59.2675 11.0745 59.0483 10.9885 58.8451C10.9205 58.6868 10.8164 58.5469 10.6848 58.4367C10.5629 58.3375 10.4203 58.2677 10.2677 58.2325C10.1143 58.1971 9.95727 58.1806 9.79997 58.1834H9.54889L9.56104 58.7389ZM9.85059 57.7525L10.3446 57.7382L10.7496 57.7178L11.0979 57.6913C11.2058 57.6804 11.3138 57.6661 11.4218 57.6484V58.1058C11.2215 58.144 11.0182 58.1645 10.8144 58.1671V58.1834C11.04 58.3013 11.2286 58.4802 11.3591 58.7001C11.4853 58.9453 11.5486 59.2184 11.5433 59.4946C11.5462 59.6575 11.5286 59.8202 11.4907 59.9786C11.4557 60.132 11.3925 60.2775 11.3044 60.4074C11.2126 60.5468 11.088 60.6609 10.9417 60.7397C10.7954 60.8184 10.632 60.8594 10.4661 60.8588C10.221 60.8768 9.97773 60.8042 9.78174 60.6546C9.61126 60.5101 9.47847 60.3257 9.39501 60.1174C9.30621 59.8985 9.24762 59.6683 9.22088 59.4333C9.19253 59.1909 9.17633 58.9772 9.17228 58.792L9.16216 58.2202H8.93538C8.80289 58.2101 8.67002 58.2338 8.549 58.2892C8.42799 58.3445 8.32272 58.4296 8.2429 58.5368C8.09798 58.7638 8.02718 59.0309 8.04043 59.3005C8.04371 59.7244 8.20156 60.1322 8.48385 60.4462L8.15584 60.7383C7.97311 60.5506 7.83469 60.3237 7.75088 60.0746C7.66066 59.8291 7.61074 59.5704 7.60307 59.3087C7.57531 58.9174 7.68105 58.5283 7.90274 58.2059C8.11062 57.9336 8.45281 57.7907 8.92931 57.777L9.85059 57.7525ZM11.4542 64.59L8.2753 62.56L8.43728 64.7043L7.99993 64.737L7.79745 61.9146L8.08902 61.8922L11.2578 63.9221L11.0817 61.5736L11.519 61.5409L11.7438 64.5675L11.4542 64.59ZM11.3246 67.7309C11.5014 67.5986 11.6325 67.4136 11.6992 67.202C11.7687 66.9908 11.7854 66.7656 11.7478 66.5464C11.7302 66.4425 11.6967 66.3419 11.6486 66.2483C11.6019 66.155 11.5403 66.0702 11.4664 65.9971C11.3959 65.9277 11.3127 65.8729 11.2214 65.8357C11.1266 65.7988 11.0234 65.7896 10.9237 65.8092C10.8504 65.8163 10.7799 65.841 10.7179 65.8811C10.6559 65.9213 10.6043 65.9757 10.5674 66.0399C10.4966 66.1774 10.452 66.327 10.4357 66.4811C10.4147 66.6648 10.4039 66.8496 10.4034 67.0345C10.4008 67.2249 10.3749 67.4142 10.3264 67.5982C10.2845 67.7668 10.2056 67.9239 10.0956 68.0577C9.96007 68.204 9.77673 68.2961 9.57926 68.317C9.41605 68.3497 9.24724 68.3391 9.08927 68.2864C8.94616 68.2364 8.81557 68.1556 8.70658 68.0495C8.59674 67.9419 8.50691 67.8153 8.44133 67.6758C8.37342 67.5335 8.32571 67.3822 8.2996 67.2265C8.24692 66.9554 8.25801 66.6756 8.332 66.4096C8.40869 66.1627 8.56291 65.9477 8.77137 65.7969L9.11154 66.1788C8.96857 66.2841 8.85491 66.4248 8.7815 66.5873C8.6896 66.8549 8.70559 67.1483 8.82604 67.4042C8.86632 67.4897 8.91885 67.5689 8.98195 67.639C9.0428 67.7058 9.11652 67.7593 9.1986 67.7963C9.28289 67.8349 9.37694 67.8463 9.4679 67.8289C9.53913 67.822 9.60752 67.7972 9.66691 67.7569C9.72629 67.7166 9.7748 67.6621 9.80806 67.5982C9.87345 67.4601 9.9139 67.3115 9.92753 67.1591C9.94633 66.9759 9.95511 66.7918 9.95385 66.6077C9.95137 66.4191 9.97315 66.231 10.0186 66.0481C10.0619 65.8769 10.1452 65.7186 10.2616 65.5866C10.4098 65.4372 10.6041 65.3436 10.8124 65.3211C10.9877 65.2882 11.1684 65.2987 11.3388 65.3517C11.4897 65.399 11.6281 65.48 11.7438 65.5886C11.8632 65.7011 11.9613 65.8347 12.0333 65.9828C12.1097 66.1395 12.1629 66.3067 12.1912 66.479C12.2439 66.7834 12.2294 67.0958 12.1487 67.394C12.0743 67.6763 11.9117 67.9269 11.685 68.1087L11.3246 67.7309ZM7.68001 71.3498C7.5928 71.3695 7.50149 71.3582 7.42161 71.3178C7.34173 71.2773 7.27821 71.2102 7.24187 71.1278C7.20552 71.0454 7.19859 70.9529 7.22225 70.866C7.24591 70.779 7.29871 70.703 7.37165 70.6509C7.4446 70.5988 7.53319 70.5738 7.62236 70.5801C7.71153 70.5864 7.79577 70.6237 7.86075 70.6856C7.92574 70.7476 7.96745 70.8303 7.9788 70.9197C7.99014 71.0091 7.97042 71.0998 7.92299 71.1762C7.89531 71.2208 7.85867 71.2592 7.81543 71.2887C7.7722 71.3183 7.72331 71.3384 7.67192 71.3477L7.68001 71.3498ZM12.8351 71.4682L9.39298 69.9447L9.87286 72.04L9.44563 72.1401L8.81389 69.3831L9.09736 69.3177L12.5395 70.8331L12.0131 68.5376L12.4403 68.4375L13.1186 71.4029L12.8351 71.4682ZM14.9328 73.2184C15.1668 73.2231 15.3958 73.287 15.599 73.4043C15.7976 73.5332 15.9419 73.7319 16.0039 73.9618C16.0293 74.0397 16.0483 74.1197 16.0606 74.2007C16.0725 74.2813 16.08 74.3624 16.0829 74.4438L15.6354 74.5377C15.6354 74.4642 15.6354 74.3886 15.6354 74.3131C15.6306 74.2373 15.6163 74.1625 15.5929 74.0905C15.5692 74.0126 15.526 73.9422 15.4673 73.8862C15.4084 73.8324 15.3397 73.7908 15.2649 73.7637C15.1912 73.7348 15.1144 73.715 15.0361 73.7045C14.9562 73.6934 14.8757 73.6865 14.7951 73.6841L13.8637 73.6269L10.7536 76.2614L10.5856 75.7406L13.2036 73.5676L9.83034 73.39L9.67038 72.8917L14.9328 73.2184ZM12.1993 84.6203L11.9726 84.1138L16.0221 80.6889V80.6746L10.7901 81.4507L10.5086 80.8237L14.5359 77.3805V77.3662L9.31402 78.1647L9.08724 77.6583L15.0077 76.8087L15.279 77.4214L11.2133 80.8727V80.887L16.4777 80.0987L16.749 80.7114L12.1993 84.6203Z" fill="white"/>
<path d="M103.853 83.6155C103.925 83.6579 103.98 83.724 104.009 83.8027C104.038 83.8813 104.039 83.9677 104.012 84.0471C103.985 84.1265 103.932 84.194 103.861 84.2382C103.791 84.2824 103.707 84.3006 103.624 84.2897C103.542 84.2788 103.466 84.2394 103.409 84.1782C103.352 84.1171 103.317 84.0379 103.312 83.9542C103.306 83.8705 103.329 83.7874 103.377 83.7189C103.426 83.6505 103.496 83.601 103.576 83.5787C103.622 83.5654 103.671 83.5618 103.718 83.5682C103.766 83.5745 103.812 83.5906 103.853 83.6155ZM102.505 82.9783L102.264 83.4052L99.012 81.5304L99.253 81.1035L102.505 82.9783ZM101.268 77.6358L103.078 80.9626L103.965 79.0062L104.37 79.19L103.203 81.7632L102.938 81.6407L101.116 78.322L100.146 80.4643L99.741 80.2805L100.994 77.5133L101.268 77.6358ZM103.213 77.0783C103.407 77.1549 103.614 77.1897 103.821 77.1804C104.019 77.1727 104.214 77.1263 104.394 77.0436C104.575 76.96 104.739 76.843 104.878 76.6984C105.021 76.5482 105.134 76.3704 105.208 76.1756C105.287 75.9774 105.325 75.7644 105.317 75.5507C105.31 75.3562 105.264 75.1651 105.182 74.9891C105.098 74.8148 104.981 74.6598 104.835 74.5337C104.524 74.2658 104.132 74.1124 103.724 74.0987C103.532 74.0934 103.341 74.1282 103.163 74.2008C102.984 74.2748 102.822 74.3845 102.687 74.5234C102.539 74.6761 102.425 74.8584 102.351 75.0585C102.272 75.2571 102.235 75.4698 102.242 75.6834C102.247 75.8845 102.291 76.0826 102.369 76.2675C102.448 76.4512 102.561 76.6177 102.703 76.7577C102.85 76.8993 103.023 77.0092 103.213 77.0803V77.0783ZM102.096 76.5841V76.5698C102.006 76.4526 101.938 76.3206 101.893 76.1797C101.846 76.0398 101.817 75.8942 101.806 75.7467C101.796 75.5987 101.804 75.4499 101.829 75.3036C101.852 75.1599 101.89 75.0189 101.942 74.8829C102.038 74.6262 102.181 74.3905 102.365 74.1885C102.535 74.001 102.742 73.8514 102.973 73.7494C103.203 73.6501 103.451 73.598 103.701 73.5963C104.247 73.5982 104.773 73.8033 105.178 74.1722C105.362 74.3451 105.51 74.5534 105.613 74.7849C105.715 75.0169 105.768 75.2681 105.769 75.5221C105.77 75.7962 105.719 76.068 105.619 76.3227C105.565 76.4586 105.497 76.5886 105.416 76.7107C105.337 76.8359 105.243 76.9511 105.137 77.0538C105.031 77.1557 104.913 77.2436 104.785 77.3152C104.655 77.3878 104.514 77.4369 104.368 77.4602V77.4765L107.202 78.5834L107.026 79.0409L101.308 76.8087L101.484 76.3512L102.096 76.5841ZM105.627 69.2443C105.428 69.1966 105.222 69.1848 105.02 69.2095C104.829 69.2319 104.645 69.2938 104.479 69.3913C104.313 69.4904 104.168 69.6224 104.054 69.7793C103.807 70.1312 103.708 70.5672 103.778 70.9924C103.813 71.1842 103.886 71.367 103.993 71.5295C104.099 71.6925 104.236 71.8315 104.398 71.938C104.744 72.1576 105.154 72.2519 105.56 72.2055C105.751 72.1832 105.935 72.1213 106.101 72.0237C106.267 71.9247 106.412 71.7927 106.526 71.6357C106.773 71.2838 106.872 70.8478 106.801 70.4226C106.766 70.2307 106.692 70.0479 106.585 69.8855C106.479 69.7225 106.341 69.5835 106.18 69.4771C106.01 69.3707 105.823 69.2947 105.627 69.2524V69.2443ZM105.736 68.7664C106.001 68.824 106.252 68.9328 106.475 69.087C106.682 69.2302 106.858 69.4135 106.994 69.6261C107.128 69.8408 107.216 70.0815 107.253 70.3328C107.294 70.6048 107.282 70.8821 107.219 71.1497C107.161 71.4166 107.053 71.6697 106.901 71.8951C106.758 72.1045 106.575 72.2821 106.362 72.417C106.149 72.5519 105.91 72.6412 105.661 72.6793C105.122 72.756 104.573 72.6295 104.121 72.324C103.913 72.1806 103.737 71.9956 103.603 71.7806C103.469 71.5656 103.381 71.3251 103.343 71.0741C103.302 70.8021 103.313 70.5246 103.377 70.2572C103.435 69.989 103.544 69.7345 103.697 69.5077C103.839 69.2975 104.022 69.1194 104.236 68.9849C104.449 68.8526 104.687 68.7644 104.935 68.7255C105.202 68.6897 105.473 68.7064 105.734 68.7745L105.736 68.7664ZM106.392 64.9821L105.987 64.3122L106.508 64.4021L106.913 65.0699L110.215 65.6417L110.124 66.1748L107.263 65.6805L108.478 67.684L107.982 67.5982L106.767 65.5948L104.945 65.2803L104.493 67.9352L104.013 67.8514L104.556 64.6594L106.392 64.9821ZM108.676 56.1882V56.7274L105.51 57.5912V57.6076L108.628 58.7206V59.1862L105.469 60.2482V60.2645L108.591 61.2142V61.7043L104.866 60.5218V60.0154L107.951 58.9432V58.9269L104.914 57.8138V57.3074L108.676 56.1882ZM106.006 49.7327C105.804 49.7587 105.609 49.8202 105.429 49.9144C105.258 50.0028 105.107 50.1259 104.985 50.2759C104.864 50.4278 104.774 50.6028 104.722 50.7906C104.615 51.2049 104.674 51.6449 104.886 52.0159C104.986 52.1832 105.118 52.3284 105.275 52.4427C105.429 52.5607 105.606 52.6449 105.795 52.6898C106.196 52.7735 106.613 52.7174 106.978 52.5306C107.148 52.4421 107.299 52.3191 107.421 52.1691C107.542 52.0172 107.632 51.8421 107.684 51.6544C107.791 51.2401 107.732 50.8001 107.52 50.4291C107.421 50.2617 107.288 50.1165 107.131 50.0023C106.975 49.8898 106.797 49.8112 106.609 49.7715C106.411 49.725 106.207 49.7139 106.006 49.7388V49.7327ZM105.941 49.2466C106.211 49.2067 106.486 49.2205 106.751 49.2875C106.994 49.3489 107.222 49.4586 107.423 49.6101C107.623 49.7636 107.79 49.9577 107.911 50.1799C108.043 50.4199 108.129 50.6834 108.162 50.956C108.202 51.2283 108.188 51.5059 108.122 51.7729C108.061 52.0194 107.951 52.2507 107.798 52.4524C107.645 52.6541 107.453 52.8218 107.233 52.9451C106.753 53.2052 106.195 53.2779 105.665 53.1493C105.421 53.0882 105.192 52.9771 104.992 52.8229C104.792 52.6686 104.626 52.4746 104.503 52.2528C104.371 52.0142 104.287 51.752 104.254 51.4808C104.215 51.2086 104.228 50.9312 104.293 50.6639C104.352 50.4169 104.463 50.1853 104.617 49.9839C104.771 49.785 104.963 49.6191 105.182 49.4958C105.417 49.3664 105.675 49.2839 105.941 49.2528V49.2466ZM105.615 47.523C105.807 47.4686 105.985 47.3747 106.139 47.2473C106.439 47.0033 106.632 46.6507 106.678 46.265C106.701 46.0655 106.685 45.8634 106.63 45.6705C106.574 45.4776 106.481 45.2978 106.356 45.1417C106.114 44.8392 105.765 44.6443 105.382 44.5985C105.185 44.5767 104.986 44.5947 104.796 44.6515C104.606 44.7083 104.43 44.8028 104.276 44.9293C103.977 45.1732 103.783 45.5258 103.738 45.9116C103.714 46.1111 103.731 46.3132 103.786 46.5061C103.841 46.6991 103.934 46.8788 104.06 47.0349C104.299 47.3376 104.645 47.5347 105.026 47.5842C105.224 47.607 105.424 47.5883 105.615 47.5291V47.523ZM104.133 48.4481C103.766 48.5706 103.377 48.611 102.993 48.5666C102.712 48.5285 102.445 48.4234 102.213 48.2602C102.015 48.1168 101.85 47.9314 101.729 47.717C101.623 47.5305 101.538 47.3325 101.476 47.1268C101.424 46.9461 101.39 46.7607 101.373 46.5733C101.355 46.3927 101.355 46.2107 101.373 46.0301C101.391 45.8599 101.43 45.6926 101.488 45.5318C101.543 45.3798 101.619 45.2361 101.713 45.105L102.163 45.3745C101.982 45.5979 101.867 45.8672 101.829 46.1526C101.791 46.4373 101.813 46.7267 101.893 47.0022C101.947 47.2109 102.037 47.4081 102.161 47.5842C102.258 47.7198 102.381 47.8344 102.523 47.9212C102.648 47.9963 102.785 48.0482 102.928 48.0744C103.062 48.0987 103.197 48.1076 103.333 48.1009C103.455 48.0958 103.576 48.0794 103.695 48.0519C103.806 48.026 103.895 48.0029 103.963 47.9825L104.461 47.8375V47.8211C104.205 47.7479 103.972 47.6069 103.789 47.4127C103.587 47.1963 103.442 46.9323 103.367 46.6448C103.292 46.3866 103.268 46.1159 103.296 45.8483C103.349 45.3345 103.596 44.8611 103.987 44.527C104.184 44.3619 104.414 44.2403 104.661 44.17C104.908 44.0996 105.167 44.0821 105.42 44.1186C105.668 44.1545 105.907 44.2384 106.123 44.3657C106.343 44.4964 106.537 44.6667 106.696 44.8681C106.864 45.0778 106.988 45.3195 107.061 45.5788C107.149 45.8621 107.166 46.1634 107.109 46.4549C107.055 46.7176 106.932 46.9609 106.753 47.1595V47.1758L107.36 46.9981L107.496 47.4699L104.133 48.4481ZM104.451 42.5399C104.604 42.482 104.742 42.3906 104.856 42.2724C104.967 42.1542 105.055 42.0156 105.115 41.8639C105.177 41.7094 105.209 41.5445 105.21 41.3779C105.212 41.2024 105.179 41.0282 105.115 40.8653C105.038 40.6448 104.902 40.4502 104.722 40.3037C104.573 40.1865 104.403 40.0998 104.222 40.0484C104.072 40.0056 103.916 39.987 103.76 39.9932C103.666 39.9941 103.573 40.0071 103.483 40.032L104.451 42.5399ZM103.205 43.4365C102.893 43.3764 102.604 43.226 102.375 43.0035C102.151 42.7777 101.977 42.5061 101.865 42.207C101.764 41.9582 101.714 41.6915 101.717 41.4228C101.721 41.1758 101.776 40.9323 101.879 40.708C101.984 40.4821 102.135 40.2805 102.321 40.1158C102.525 39.9356 102.761 39.7938 103.015 39.6971C103.262 39.5965 103.525 39.5432 103.791 39.5399C104.037 39.5367 104.282 39.5832 104.511 39.6767C104.739 39.7701 104.946 39.9091 105.119 40.0851C105.297 40.2722 105.435 40.4948 105.524 40.7386C105.624 40.9816 105.671 41.2436 105.661 41.5065C105.652 41.7331 105.596 41.9553 105.498 42.1594C105.399 42.3634 105.261 42.5451 105.09 42.6931C104.927 42.8391 104.739 42.9552 104.536 43.0362L104.218 43.1607L103.072 40.2056C102.949 40.2595 102.834 40.3281 102.728 40.4098C102.588 40.5132 102.468 40.642 102.375 40.7897C102.271 40.9574 102.202 41.1451 102.173 41.3411C102.143 41.5859 102.179 41.8344 102.278 42.06C102.37 42.296 102.518 42.5061 102.707 42.6727C102.888 42.8405 103.113 42.953 103.355 42.9974L103.205 43.4365ZM101.788 35.2226C101.85 35.1899 101.924 35.1477 102.011 35.0959L102.274 34.9428L102.523 34.7978C102.6 34.7515 102.66 34.7168 102.703 34.6936L102.93 35.1286L102.578 35.3328C102.502 35.3712 102.431 35.4171 102.365 35.4697L102.377 35.4921C102.622 35.4874 102.863 35.5518 103.074 35.678C103.319 35.8205 103.517 36.0339 103.641 36.2906C103.761 36.5061 103.83 36.7464 103.843 36.9932C103.851 37.186 103.81 37.3777 103.726 37.5507C103.639 37.7197 103.518 37.8685 103.371 37.9878C103.216 38.1172 103.048 38.2301 102.869 38.3247L100.895 39.3724L100.668 38.9374L102.62 37.902C102.752 37.8328 102.876 37.7514 102.993 37.659C103.102 37.5733 103.195 37.4689 103.268 37.3506C103.337 37.2359 103.374 37.1047 103.375 36.9707C103.372 36.8048 103.327 36.6424 103.244 36.499C103.164 36.3439 103.056 36.2054 102.926 36.0905C102.798 35.9778 102.647 35.8967 102.483 35.8536C102.302 35.8091 102.113 35.8022 101.93 35.8332C101.703 35.8715 101.485 35.9481 101.284 36.0599L99.6195 36.9278L99.3927 36.4928L101.788 35.2226ZM97.7526 32.9271L101.484 33.3988L100.429 31.5343L100.81 31.3157L102.193 33.7787L101.94 33.9237L98.2021 33.4601L99.3542 35.5023L98.9736 35.7209L97.4853 33.066L97.7526 32.9271ZM98.3439 29.6472C98.4006 29.6064 98.468 29.554 98.5463 29.49L98.7873 29.3021C98.8696 29.2395 98.9452 29.1802 99.0141 29.1244C99.0829 29.0686 99.1376 29.0257 99.1781 28.9958L99.4595 29.4042L99.1355 29.6513C99.0627 29.6987 98.9949 29.7535 98.9331 29.8147C99.1759 29.7862 99.422 29.812 99.6539 29.8903C99.8931 29.9776 100.098 30.1401 100.239 30.3539C100.267 30.3931 100.291 30.4348 100.312 30.4784C100.332 30.5206 100.352 30.5649 100.371 30.6112L99.9495 30.8379C99.9318 30.7767 99.9044 30.7188 99.8685 30.6663C99.7619 30.5093 99.624 30.3764 99.4636 30.2762C99.3273 30.1919 99.1734 30.1409 99.0141 30.1272C98.855 30.1151 98.6951 30.136 98.5443 30.1884C98.3794 30.2452 98.2238 30.3264 98.0827 30.4294L96.4183 31.6262L96.1368 31.2177L98.3439 29.6472ZM98.2669 28.4668L97.5947 27.6193L95.663 29.1265C95.6046 29.1666 95.5547 29.2182 95.5164 29.2782C95.4782 29.3382 95.4523 29.4054 95.4403 29.4757C95.4336 29.5458 95.4411 29.6165 95.4623 29.6835C95.4835 29.7506 95.5181 29.8126 95.5638 29.8658C95.6224 29.9423 95.6904 30.0109 95.7663 30.07C95.8423 30.1295 95.9228 30.1828 96.0073 30.2293L95.6853 30.5315C95.5937 30.4687 95.5058 30.4005 95.4221 30.3273C95.3391 30.2603 95.2637 30.1843 95.1973 30.1006C95.104 29.9791 95.0352 29.8404 94.9949 29.6922C94.9599 29.5729 94.953 29.447 94.9746 29.3246C94.9977 29.2088 95.0453 29.0994 95.1143 29.0039C95.1888 28.8994 95.2782 28.8065 95.3796 28.7282L97.3112 27.2211L96.8151 26.5737L97.1614 26.3041L97.6575 26.9515L98.5099 26.2857L98.8075 26.6737L97.9551 27.3395L98.6071 28.2034L98.2669 28.4668ZM95.1366 26.2837C95.256 26.1695 95.3487 26.03 95.4079 25.8752C95.4668 25.7257 95.497 25.5663 95.497 25.4055C95.4967 25.239 95.4651 25.0741 95.4039 24.9194C95.3407 24.7562 95.2464 24.6071 95.1265 24.4804C94.9736 24.3049 94.7751 24.1761 94.5535 24.1087C94.372 24.0565 94.1822 24.0405 93.9946 24.0617C93.8399 24.0793 93.6889 24.1213 93.5471 24.1863C93.4611 24.2226 93.3801 24.2699 93.3062 24.3272L95.1366 26.2837ZM92.1683 28.5118C92.0508 28.5006 91.9355 28.4724 91.8261 28.428C91.7017 28.3747 91.5904 28.2945 91.5001 28.1932C91.3615 28.0555 91.2767 27.8721 91.2612 27.6765C91.256 27.5844 91.2715 27.4922 91.3066 27.407C91.3416 27.3218 91.3953 27.2457 91.4636 27.1843C91.6077 27.0459 91.7924 26.9584 91.9901 26.9351C92.1917 26.9086 92.3959 26.9086 92.5975 26.9351C92.4201 26.7402 92.2825 26.5119 92.1926 26.2632C92.1083 26.035 92.0718 25.7916 92.0852 25.5485C92.1011 25.3024 92.1658 25.0621 92.2756 24.8418C92.3904 24.6026 92.546 24.3856 92.7352 24.2006C92.9263 24.0142 93.1502 23.8653 93.3953 23.7615C93.623 23.6656 93.8673 23.6163 94.1141 23.6165C94.357 23.6175 94.5972 23.6675 94.8207 23.7635C95.0586 23.8667 95.2725 24.0191 95.4484 24.2108C95.6287 24.3989 95.7668 24.6238 95.8534 24.8704C95.9299 25.0884 95.9609 25.3199 95.9445 25.5505C95.9272 25.7726 95.8666 25.9892 95.7663 26.1877C95.6687 26.3846 95.5378 26.5629 95.3796 26.7146L95.1427 26.9576L92.9782 24.6478C92.8849 24.7432 92.8034 24.8495 92.7352 24.9644C92.6437 25.1133 92.5805 25.2781 92.5489 25.4504C92.5138 25.6455 92.5193 25.8458 92.5651 26.0386C92.6282 26.277 92.7541 26.4937 92.9296 26.6656C93.0149 26.7565 93.1107 26.8367 93.2151 26.9045C93.3196 26.9727 93.4317 27.0282 93.5492 27.0699C93.6661 27.1114 93.788 27.1368 93.9116 27.1455C94.0335 27.1546 94.1561 27.147 94.2761 27.123L94.3044 27.5927C94.0528 27.6421 93.7934 27.6344 93.5451 27.5703C93.304 27.4995 93.079 27.3815 92.883 27.2231C92.7113 27.2087 92.5384 27.2169 92.3687 27.2476C92.1842 27.2743 92.0124 27.3577 91.8767 27.4865C91.8349 27.5141 91.8001 27.5511 91.7748 27.5945C91.7495 27.6379 91.7346 27.6866 91.731 27.7368C91.7275 27.787 91.7355 27.8374 91.7545 27.8839C91.7734 27.9305 91.8028 27.972 91.8402 28.0053C91.9042 28.0791 91.9857 28.1353 92.0771 28.1687C92.1423 28.1915 92.2107 28.2032 92.2796 28.2034L92.1683 28.5118ZM89.9754 20.5143C90.0213 20.4612 90.0746 20.3932 90.1354 20.3101C90.1961 20.2271 90.2596 20.1467 90.3257 20.0691C90.3905 19.9888 90.4499 19.9126 90.5039 19.8404C90.5579 19.7682 90.6011 19.7138 90.6335 19.677L90.9898 20.014L90.7347 20.3326C90.6782 20.3955 90.628 20.4639 90.5849 20.5368L90.6031 20.5531C90.8288 20.4579 91.0763 20.4282 91.3178 20.4674C91.5961 20.5078 91.8562 20.6308 92.065 20.8207C92.2567 20.9753 92.4105 21.1723 92.5145 21.3966C92.5914 21.5731 92.6234 21.7661 92.6076 21.9582C92.5885 22.1472 92.5306 22.3301 92.4376 22.4953C92.3395 22.673 92.2235 22.84 92.0913 22.9936L90.6335 24.6968L90.265 24.3762L91.7066 22.6914C91.8033 22.5785 91.8894 22.4568 91.9638 22.3278C92.0339 22.208 92.0826 22.0767 92.1075 21.9398C92.1307 21.8075 92.1181 21.6714 92.0711 21.5457C92.0075 21.3927 91.9065 21.2585 91.7775 21.1556C91.6467 21.0404 91.4956 20.951 91.332 20.8922C91.1725 20.835 91.0019 20.8161 90.8339 20.837C90.6492 20.8619 90.4715 20.9245 90.3115 21.0208C90.1148 21.1399 89.9395 21.2918 89.7932 21.4701L88.5783 22.8997L88.2098 22.579L89.9754 20.5143ZM85.3528 15.7253L85.7922 16.0357L84.7373 19.1542H84.7515L87.408 17.1651L87.7866 17.4326L86.8977 20.6695H86.9119L89.4348 18.5865L89.8398 18.8683L86.7884 21.319L86.3834 21.029L87.2237 17.8472H87.2096L84.5956 19.775L84.1906 19.485L85.3528 15.7253ZM83.3787 16.3849C83.4601 16.2437 83.5099 16.0861 83.5244 15.9234C83.5382 15.7631 83.5217 15.6016 83.4759 15.4475C83.4276 15.2886 83.35 15.1403 83.2471 15.0105C83.14 14.8729 83.0072 14.7577 82.8563 14.6715C82.6614 14.548 82.4364 14.4815 82.2063 14.4795C82.0175 14.4825 81.8311 14.5228 81.6576 14.598C81.5145 14.6597 81.3819 14.7438 81.2648 14.8471C81.1929 14.9066 81.1289 14.9753 81.0745 15.0513L83.3787 16.3849ZM82.9737 17.8717C82.6931 18.0224 82.3752 18.0877 82.0585 18.0596C81.7439 18.0251 81.4402 17.9235 81.1676 17.7614C80.9329 17.6319 80.7263 17.4562 80.5602 17.2447C80.4098 17.0496 80.3015 16.8249 80.2423 16.5851C80.184 16.3429 80.1757 16.0913 80.218 15.8458C80.2658 15.5756 80.3611 15.3162 80.4994 15.0799C80.629 14.8458 80.8007 14.6381 81.0056 14.4673C81.1958 14.3087 81.4154 14.19 81.6515 14.118C81.8844 14.0481 82.1288 14.0259 82.3703 14.0527C82.6278 14.0826 82.8761 14.1668 83.0992 14.2998C83.3278 14.4256 83.5267 14.5998 83.6824 14.8104C83.818 14.9968 83.9138 15.2096 83.9638 15.4353C84.0108 15.6529 84.015 15.8777 83.976 16.097C83.9386 16.3124 83.8646 16.5196 83.7573 16.7096L83.5872 17.0078L80.8558 15.4312C80.7938 15.5503 80.7463 15.6765 80.714 15.807C80.6691 15.9766 80.6561 16.1532 80.6756 16.3277C80.698 16.5244 80.7608 16.7143 80.8598 16.8853C80.9885 17.0951 81.1711 17.2659 81.3883 17.3795C81.6069 17.5043 81.852 17.5743 82.103 17.5837C82.3486 17.5996 82.5936 17.5451 82.8097 17.4265L82.9737 17.8717Z" fill="white"/>
<path fill-rule="evenodd" clip-rule="evenodd" d="M57.1233 44.621L56.9613 45.06C56.5138 47.3535 57.6112 48.3664 57.348 50.7538C57.7991 50.5866 58.1918 50.2897 58.4775 49.8999C58.7632 49.5101 58.9294 49.0445 58.9557 48.5604C59.0772 47.0083 58.3969 46.6448 58.3483 45.4358L57.9939 44.9906L57.8178 44.4004C57.3257 44.476 57.4594 44.4126 57.1334 44.6189" fill="white"/>
<path fill-rule="evenodd" clip-rule="evenodd" d="M52.9988 49.8674C52.8165 50.4911 52.5325 51.0799 52.1585 51.6095C51.7151 52.2119 51.8143 51.9852 51.2048 52.4039C51.0566 52.4852 50.9203 52.587 50.7999 52.7061C51.9013 53.3474 52.4055 52.8859 53.4685 52.7858C53.5009 52.7388 53.5516 52.6816 53.5758 52.653C54.8677 51.0397 54.815 50.525 54.7482 47.9232C53.0575 48.5073 53.8897 48.8851 52.9968 49.8654" fill="white"/>
<path fill-rule="evenodd" clip-rule="evenodd" d="M47.8315 48.7524C46.971 48.9688 46.2117 48.8279 45.418 48.5951L45.2317 48.8463C45.6367 49.7204 46.0538 50.378 47.1876 50.574C48.6212 50.8212 49.18 50.0614 50.2552 49.9614C50.8039 49.1159 50.8323 49.6591 51.4012 48.6666C49.7287 48.2806 49.5546 48.4277 47.8295 48.7503" fill="white"/>
<path fill-rule="evenodd" clip-rule="evenodd" d="M66.66 49.218C66.5628 49.8674 66.5547 50.5434 66.3259 51.2603C65.9999 52.2814 65.7023 52.1793 65.3702 52.941C70.0029 52.6572 67.8789 48.346 67.8384 47.4923L67.3687 47.1186C66.7187 47.7313 66.7309 48.0253 66.662 49.2119" fill="white"/>
<path fill-rule="evenodd" clip-rule="evenodd" d="M64.5907 41.286C66.413 42.3071 68.0328 40.6917 70.8189 41.5188C70.1872 38.3349 65.8967 39.5153 64.5907 41.286Z" fill="white"/>
<path fill-rule="evenodd" clip-rule="evenodd" d="M63.9832 50.4883C63.8942 50.9988 63.6775 51.2296 63.1045 51.7136C62.902 51.8893 62.7502 51.9648 62.4728 52.169L61.8228 52.7531L63.0053 52.9839C65.2143 53.1575 66.7896 50.8743 66.2065 48.491C64.862 48.6952 65.1293 49.8062 63.9792 50.4862" fill="white"/>
<path fill-rule="evenodd" clip-rule="evenodd" d="M62.0557 44.3166C61.5414 44.6495 60.9744 44.8864 60.4642 45.2867C61.9585 45.542 62.8797 46.0484 64.1493 45.1213C64.6961 44.7309 65.2194 44.3081 65.7165 43.8551C65.9834 43.5971 66.294 43.3896 66.6337 43.2424L66.253 42.7788C63.313 42.9136 64.2283 42.9095 62.0557 44.3187" fill="white"/>
<path fill-rule="evenodd" clip-rule="evenodd" d="M42.5428 45.4746L42.1155 46.6693C42.9255 46.6469 43.1948 46.655 43.8528 46.2813L45.0555 45.4072C45.4767 44.1615 46.6652 43.4732 47.2281 42.6461C43.6888 42.06 44.1403 44.2288 42.5489 45.4746" fill="white"/>
<path fill-rule="evenodd" clip-rule="evenodd" d="M67.6906 46.5856L67.9458 47.4597C68.7212 48.3092 68.9581 50.0206 68.7455 51.3971C69.8794 50.8988 70.7258 49.8818 70.3208 48.1847C70.1692 47.6033 69.8625 47.0749 69.434 46.6571C68.5836 45.7421 68.5188 46.1036 68.4216 45.4971H67.7372L67.6906 46.5856Z" fill="white"/>
<path fill-rule="evenodd" clip-rule="evenodd" d="M50.2147 50.0778C49.7085 50.9172 48.3033 50.7558 47.5238 51.4747C48.0684 51.7341 48.5706 52.0874 49.3461 52.265C50.3261 52.2364 51.0975 52.02 51.6482 51.536C52.039 51.1929 51.9317 51.2235 52.197 50.7844C52.5371 50.2248 52.4804 50.2453 52.8894 49.8736L53.0271 48.8279C51.5166 48.928 51.4296 49.5448 50.2127 50.0798" fill="white"/>
<path fill-rule="evenodd" clip-rule="evenodd" d="M51.0388 37.7182C50.6156 38.2492 50.2694 38.4084 49.9252 39.3009C49.5971 40.1525 49.5708 40.9551 49.4959 41.87C51.6806 41.3064 51.1643 39.1028 53.9869 37.8856C53.999 36.9115 51.6584 37.4956 51.0408 37.7182" fill="white"/>
<path fill-rule="evenodd" clip-rule="evenodd" d="M68.4135 45.3378C70.1609 46.0893 69.9705 46.9001 71.0214 48.491C71.3802 48.0483 71.5909 47.5025 71.6233 46.9317C71.6556 46.3608 71.508 45.7943 71.2016 45.3133C70.5942 44.3963 69.7843 44.19 68.8529 43.7162L67.4882 43.4589C67.7089 44.4637 68.043 44.7067 68.4135 45.3378Z" fill="white"/>
<path fill-rule="evenodd" clip-rule="evenodd" d="M57.3662 41.7904C56.694 41.9681 55.7565 42.1172 55.3415 42.6747C56.775 43.1526 56.1514 43.4916 58.4515 43.3037L61.6061 41.5576C60.7092 40.4527 58.3665 40.9204 57.3683 41.7904" fill="white"/>
<path fill-rule="evenodd" clip-rule="evenodd" d="M54.1165 40.6039L53.2883 41.3023C54.3675 42.4929 56.0947 41.6944 57.3663 41.3452C58.1883 40.657 58.8241 41.0511 59.4234 40.1484C58.5001 39.7625 57.9575 39.352 56.5624 39.6542C55.6371 39.8584 54.9426 40.4895 54.1144 40.6018" fill="white"/>
<path fill-rule="evenodd" clip-rule="evenodd" d="M58.0648 43.755L58.164 44.2431L58.4617 44.3881C59.8486 44.8476 59.7008 45.1111 61.1951 44.3289C62.2318 43.7856 62.6226 43.2016 63.6532 42.8523L64.0156 42.3071C61.2721 41.2696 60.3103 43.269 58.0668 43.753" fill="white"/>
<path fill-rule="evenodd" clip-rule="evenodd" d="M62.9709 41.4228C64.3315 40.9817 64.3882 40.8346 65.5585 39.9932C66.5972 39.2437 66.5891 39.3397 67.6157 39.0252C68.2819 38.821 67.8546 39.1294 68.3386 38.7229C65.9837 36.4908 63.1794 38.7863 62.9688 41.4289" fill="white"/>
<path fill-rule="evenodd" clip-rule="evenodd" d="M61.27 50.0819C60.9542 50.5597 60.1017 50.8375 59.4741 50.9171C59.3315 51.0642 59.2138 51.234 59.1258 51.4195C59.8831 51.9321 60.5897 52.3099 61.8147 51.9505C62.9142 51.6278 63.2017 50.7885 63.882 50.5209C64.21 49.7245 64.4469 49.6693 64.6697 49.026C63.1673 48.7422 62.4424 49.6632 61.27 50.0839" fill="white"/>
<path fill-rule="evenodd" clip-rule="evenodd" d="M54.1144 40.4629C54.6571 39.5847 56.2303 39.5357 57.0929 38.9353C56.2607 37.9795 55.6371 38.2021 54.3473 37.9938C53.2276 38.9455 52.0309 39.3989 51.4154 41.1552C52.8044 41.194 53.0069 40.8714 54.1144 40.4629Z" fill="white"/>
<path fill-rule="evenodd" clip-rule="evenodd" d="M69.0756 43.6039C70.3228 43.5876 70.7561 44.2166 71.4264 44.8293C71.9062 44.5352 71.7058 44.5168 71.6592 43.7162C71.3494 41.1961 68.3811 41.5127 66.6863 42.0191C66.2166 42.7257 68.6868 43.4487 69.0756 43.6121" fill="white"/>
<path fill-rule="evenodd" clip-rule="evenodd" d="M40.5727 47.1758C42.2107 46.7061 41.4433 46.0566 42.395 45.493C42.9376 43.9572 43.7819 43.4854 44.2335 42.4133L42.6136 42.4929C42.0649 43.1056 41.4271 43.0035 40.8764 44.188C40.4593 45.0866 40.5301 46.3548 40.5565 47.1778" fill="white"/>
<path fill-rule="evenodd" clip-rule="evenodd" d="M72.1067 47.3535C71.9751 48.2847 71.9832 47.672 72.3213 47.8967H72.9935C74.5141 47.5965 75.3382 46.3568 75.5367 44.6985C75.5572 44.2242 75.6473 43.7555 75.8039 43.3078C74.1578 43.1505 73.2446 46.2486 72.1067 47.3514" fill="white"/>
<path fill-rule="evenodd" clip-rule="evenodd" d="M55.1106 47.6455C55.2706 49.075 55.2787 51.0744 54.5437 52.1527C54.491 52.5305 54.3959 52.4488 54.7462 52.4652C57.1759 51.9056 57.2711 49.8511 56.5685 47.4392C55.5946 47.6863 56.2384 47.6312 55.3536 47.5189L55.1106 47.6455Z" fill="white"/>
<path fill-rule="evenodd" clip-rule="evenodd" d="M48.6981 42.2601L49.0262 41.0777C49.0529 40.6042 49.1207 40.1341 49.2286 39.6726C49.4574 38.7536 49.8361 38.1327 50.3402 37.6916C49.7613 37.6024 49.1692 37.7056 48.6535 37.9856C48.1377 38.2656 47.7263 38.7072 47.4812 39.2437C47.2307 39.8726 47.1756 40.5635 47.3233 41.2247C47.5258 42.2458 47.6108 42.2683 48.7042 42.2622" fill="white"/>
<path fill-rule="evenodd" clip-rule="evenodd" d="M61.2801 40.4649C61.9645 40.951 61.8127 41.0082 62.5942 41.2042C62.7911 40.3731 63.1236 39.5808 63.5783 38.8597C64.1857 37.9326 64.6555 37.9632 65.1981 37.3179C62.7076 36.5377 61.1647 38.0674 61.2801 40.4649Z" fill="white"/>
<path fill-rule="evenodd" clip-rule="evenodd" d="M49.4878 44.2983C48.3802 44.964 47.5339 45.7115 47.1046 46.5856C47.6857 46.9471 48.1049 46.994 48.8439 46.7653C49.249 46.596 49.6421 46.3988 50.0203 46.1751L52.0694 44.5597L52.8469 44.1512L52.6141 43.657C50.972 43.6938 50.8646 43.4712 49.4858 44.3024" fill="white"/>
<path fill-rule="evenodd" clip-rule="evenodd" d="M65.3885 44.3983C65.2913 44.9191 65.1192 44.8436 64.5421 45.2969C64.1307 45.6525 63.6468 45.9126 63.1247 46.0587C63.2497 46.252 63.4174 46.4135 63.6147 46.5304C64.8296 46.8245 65.0321 46.6979 66.1194 46.3671C66.5851 46.0097 66.9091 45.6645 67.2938 45.3643L66.9617 43.704L65.3885 44.3983Z" fill="white"/>
<path fill-rule="evenodd" clip-rule="evenodd" d="M39.54 42.9892C39.1128 43.7326 39.3193 43.4732 38.6511 43.7857L38.3231 44.8374C38.7949 45.4746 39.4185 46.267 40.0543 46.6571C40.0057 45.0784 40.194 44.1104 41.0809 43.0913C40.8602 42.6829 41.4393 42.8687 40.3702 42.8524L39.54 42.9892Z" fill="white"/>
<path fill-rule="evenodd" clip-rule="evenodd" d="M75.812 45.1703C75.7898 46.1199 75.4516 46.8041 74.8786 47.2452C75.2694 47.9845 74.6761 47.3963 75.3423 47.5454C75.5603 47.5729 75.7816 47.5513 75.9902 47.4821C76.3547 47.3219 76.6954 47.1116 77.0026 46.8572L77.7963 45.5175L77.2253 44.9783C76.7718 44.3943 76.5551 44.5005 76.1178 43.753L75.812 45.1703Z" fill="white"/>
<path fill-rule="evenodd" clip-rule="evenodd" d="M58.9213 50.28C58.9213 50.6435 58.8403 50.5312 59.227 50.5537L61.2518 49.941C61.7357 49.3283 61.4178 49.6796 62.0334 49.3161C62.5841 48.9913 62.3675 49.2201 62.7583 48.7708C61.9686 48.0478 61.4401 48.1459 60.3062 48.3399C60.2111 48.683 60.3265 48.5196 60.039 48.8504C59.8243 49.0955 59.8365 48.9832 59.5773 49.2589C59.2776 49.5836 59.1946 49.847 58.9112 50.28" fill="white"/>
<path fill-rule="evenodd" clip-rule="evenodd" d="M46.0983 48.3541C47.785 48.5032 48.032 48.3113 49.5404 48.0376C49.5377 47.8476 49.514 47.6586 49.4696 47.4739L46.5357 47.1921L44.7559 47.1451C45.094 47.9069 44.6729 47.4474 45.4241 47.962C45.7703 48.1949 45.7885 48.105 46.1024 48.3705" fill="white"/>
<path fill-rule="evenodd" clip-rule="evenodd" d="M60.612 46.7673L60.5512 45.9994C58.0668 44.8803 58.7289 44.8108 58.4576 45.3398C59.065 46.2036 59.1784 47.3371 59.5348 48.3419C59.9053 48.1581 59.636 48.395 59.9398 48.0886C59.9398 48.0886 60.2172 47.7292 60.2293 47.7088C60.3826 47.4058 60.5099 47.0901 60.61 46.7653" fill="white"/>
<path fill-rule="evenodd" clip-rule="evenodd" d="M45.4362 40.2485L45.1527 41.8312L46.7726 41.9823C47.0864 41.821 47.1269 42.2621 46.9507 41.5943C46.8588 41.1482 46.8114 40.6939 46.809 40.2383C46.809 40.1586 46.8434 39.6869 46.8394 39.6623C46.7442 38.9945 47.0155 39.5235 46.5458 39.1171C46.2112 39.5231 45.8449 39.9014 45.4504 40.2485" fill="white"/>
<path fill-rule="evenodd" clip-rule="evenodd" d="M52.7072 47.2432C52.1727 47.766 52.0674 47.4474 52.1646 47.9641C53.3491 48.6544 53.503 47.5761 54.734 47.2616L55.139 46.5835C55.4326 45.9239 55.3415 46.0076 56.0117 45.7278C55.6351 45.4276 55.8699 45.4705 55.22 45.7115C54.9176 45.8416 54.624 45.9917 54.3412 46.1608C53.588 46.6775 53.4726 46.9205 52.7052 47.2432" fill="white"/>
<path fill-rule="evenodd" clip-rule="evenodd" d="M59.2635 39.1538C59.5793 39.74 59.8304 40.0688 60.6201 40.3159C60.6505 40.2607 60.693 40.1116 60.7031 40.1464C60.7132 40.1811 60.7638 40.0197 60.776 39.9748L60.9785 38.87C61.1121 38.3655 61.3369 38.0531 61.5029 37.5895C60.288 37.8264 59.796 38.1776 59.2594 39.1538" fill="white"/>
<path fill-rule="evenodd" clip-rule="evenodd" d="M72.3395 45.2316C72.3395 45.3051 72.3395 45.64 72.3395 45.6952C72.5279 46.3078 72.05 45.8034 72.5846 46.1955C72.9774 45.4399 73.6354 44.5617 73.9128 43.6774L72.2565 43.9082L72.3395 45.2316Z" fill="white"/>
<path fill-rule="evenodd" clip-rule="evenodd" d="M55.7606 46.4243L55.3556 47.5209C56.2445 47.6312 55.5986 47.6864 56.5705 47.4413L56.5098 46.6428C56.1979 46.3262 56.3721 46.5488 56.0157 46.3528L55.7606 46.4243Z" fill="white"/>
<path fill-rule="evenodd" clip-rule="evenodd" d="M55.4609 44.1124C56.2506 45.0416 56.2931 44.8068 56.9896 44.2023L55.4467 43.4834L55.4609 44.1124Z" fill="white"/>
<path fill-rule="evenodd" clip-rule="evenodd" d="M66.336 46.4405L66.0384 46.7326L66.1639 47.2717C66.9455 46.9899 67.067 46.9062 67.2411 46.2016C66.6539 46.3466 66.9941 46.3303 66.3381 46.4405" fill="white"/>
<path fill-rule="evenodd" clip-rule="evenodd" d="M65.8056 47.3167L66.168 47.2718L66.0425 46.7326C65.6213 47.0941 65.9109 46.6305 65.8056 47.3167Z" fill="white"/>
<path fill-rule="evenodd" clip-rule="evenodd" d="M59.1238 51.4175C59.2118 51.2319 59.3294 51.0622 59.472 50.9151L58.9456 51.0356L59.1238 51.4175Z" fill="white"/>
<path fill-rule="evenodd" clip-rule="evenodd" d="M59.225 50.5516C58.8362 50.5291 58.9192 50.6415 58.9192 50.278L58.6074 50.7232L59.225 50.5516Z" fill="white"/>
<path fill-rule="evenodd" clip-rule="evenodd" d="M51.9783 45.2315C50.9902 45.8258 50.2349 46.4916 49.8523 47.2738C50.3706 47.5965 50.7432 47.6353 51.4053 47.4331C51.7665 47.2819 52.1169 47.1059 52.4541 46.9062L54.2764 45.4664L54.9709 45.0968L54.7684 44.6556C53.3045 44.6883 53.2073 44.4882 51.9783 45.2315Z" fill="white"/>
<path fill-rule="evenodd" clip-rule="evenodd" d="M46.7381 44.0267C45.9019 44.7047 45.2904 45.4195 45.0393 46.1914C45.5597 46.4222 45.91 46.4079 46.4931 46.1363C46.8073 45.9498 47.1083 45.7416 47.3942 45.5134L48.8966 43.9429L49.4898 43.51L49.2408 43.1301C47.8923 43.3527 47.7769 43.1812 46.7381 44.0287" fill="white"/>
<path fill-rule="evenodd" clip-rule="evenodd" d="M57.1233 44.621L56.9613 45.06C56.5138 47.3535 57.6112 48.3664 57.348 50.7538C57.7991 50.5866 58.1918 50.2897 58.4775 49.8999C58.7632 49.5101 58.9294 49.0445 58.9557 48.5604C59.0772 47.0083 58.3969 46.6448 58.3483 45.4358L57.9939 44.9906L57.8178 44.4004C57.3257 44.476 57.4594 44.4126 57.1334 44.6189" fill="white"/>
<path fill-rule="evenodd" clip-rule="evenodd" d="M52.9988 49.8674C52.8165 50.4911 52.5325 51.0799 52.1585 51.6095C51.7151 52.2119 51.8143 51.9852 51.2048 52.4039C51.0566 52.4852 50.9203 52.587 50.7999 52.7061C51.9013 53.3474 52.4055 52.8859 53.4685 52.7858C53.5009 52.7388 53.5516 52.6816 53.5758 52.653C54.8677 51.0397 54.815 50.525 54.7482 47.9232C53.0575 48.5073 53.8897 48.8851 52.9968 49.8654" fill="white"/>
<path fill-rule="evenodd" clip-rule="evenodd" d="M47.8315 48.7524C46.971 48.9688 46.2117 48.8279 45.418 48.5951L45.2317 48.8463C45.6367 49.7204 46.0538 50.378 47.1876 50.574C48.6212 50.8212 49.18 50.0614 50.2552 49.9614C50.8039 49.1159 50.8323 49.6591 51.4012 48.6666C49.7287 48.2806 49.5546 48.4277 47.8295 48.7503" fill="white"/>
<path fill-rule="evenodd" clip-rule="evenodd" d="M66.66 49.218C66.5628 49.8674 66.5547 50.5434 66.3259 51.2603C65.9999 52.2814 65.7023 52.1793 65.3702 52.941C70.0029 52.6572 67.8789 48.346 67.8384 47.4923L67.3687 47.1186C66.7187 47.7313 66.7309 48.0253 66.662 49.2119" fill="white"/>
<path fill-rule="evenodd" clip-rule="evenodd" d="M64.5907 41.286C66.413 42.3071 68.0328 40.6917 70.8189 41.5188C70.1872 38.3349 65.8967 39.5153 64.5907 41.286Z" fill="white"/>
<path fill-rule="evenodd" clip-rule="evenodd" d="M63.9832 50.4883C63.8942 50.9988 63.6775 51.2296 63.1045 51.7136C62.902 51.8893 62.7502 51.9648 62.4728 52.169L61.8228 52.7531L63.0053 52.9839C65.2143 53.1575 66.7896 50.8743 66.2065 48.491C64.862 48.6952 65.1293 49.8062 63.9792 50.4862" fill="white"/>
<path fill-rule="evenodd" clip-rule="evenodd" d="M62.0557 44.3166C61.5414 44.6495 60.9744 44.8864 60.4642 45.2867C61.9585 45.542 62.8797 46.0484 64.1493 45.1213C64.6961 44.7309 65.2194 44.3081 65.7165 43.8551C65.9834 43.5971 66.294 43.3896 66.6337 43.2424L66.253 42.7788C63.313 42.9136 64.2283 42.9095 62.0557 44.3187" fill="white"/>
<path fill-rule="evenodd" clip-rule="evenodd" d="M42.5428 45.4746L42.1155 46.6693C42.9255 46.6469 43.1948 46.655 43.8528 46.2813L45.0555 45.4072C45.4767 44.1615 46.6652 43.4732 47.2281 42.6461C43.6888 42.06 44.1403 44.2288 42.5489 45.4746" fill="white"/>
<path fill-rule="evenodd" clip-rule="evenodd" d="M67.6906 46.5856L67.9458 47.4597C68.7212 48.3092 68.9581 50.0206 68.7455 51.3971C69.8794 50.8988 70.7258 49.8818 70.3208 48.1847C70.1692 47.6033 69.8625 47.0749 69.434 46.6571C68.5836 45.7421 68.5188 46.1036 68.4216 45.4971H67.7372L67.6906 46.5856Z" fill="white"/>
<path fill-rule="evenodd" clip-rule="evenodd" d="M50.2147 50.0778C49.7085 50.9172 48.3033 50.7558 47.5238 51.4747C48.0684 51.7341 48.5706 52.0874 49.3461 52.265C50.3261 52.2364 51.0975 52.02 51.6482 51.536C52.039 51.1929 51.9317 51.2235 52.197 50.7844C52.5371 50.2248 52.4804 50.2453 52.8894 49.8736L53.0271 48.8279C51.5166 48.928 51.4296 49.5448 50.2127 50.0798" fill="white"/>
<path fill-rule="evenodd" clip-rule="evenodd" d="M51.0388 37.7182C50.6156 38.2492 50.2694 38.4084 49.9252 39.3009C49.5971 40.1525 49.5708 40.9551 49.4959 41.87C51.6806 41.3064 51.1643 39.1028 53.9869 37.8856C53.999 36.9115 51.6584 37.4956 51.0408 37.7182" fill="white"/>
<path fill-rule="evenodd" clip-rule="evenodd" d="M68.4135 45.3378C70.1609 46.0893 69.9705 46.9001 71.0214 48.491C71.3802 48.0483 71.5909 47.5025 71.6233 46.9317C71.6556 46.3608 71.508 45.7943 71.2016 45.3133C70.5942 44.3963 69.7843 44.19 68.8529 43.7162L67.4882 43.4589C67.7089 44.4637 68.043 44.7067 68.4135 45.3378Z" fill="white"/>
<path fill-rule="evenodd" clip-rule="evenodd" d="M57.3662 41.7904C56.694 41.9681 55.7565 42.1172 55.3415 42.6747C56.775 43.1526 56.1514 43.4916 58.4515 43.3037L61.6061 41.5576C60.7092 40.4527 58.3665 40.9204 57.3683 41.7904" fill="white"/>
<path fill-rule="evenodd" clip-rule="evenodd" d="M54.1165 40.6039L53.2883 41.3023C54.3675 42.4929 56.0947 41.6944 57.3663 41.3452C58.1883 40.657 58.8241 41.0511 59.4234 40.1484C58.5001 39.7625 57.9575 39.352 56.5624 39.6542C55.6371 39.8584 54.9426 40.4895 54.1144 40.6018" fill="white"/>
<path fill-rule="evenodd" clip-rule="evenodd" d="M58.0648 43.755L58.164 44.2431L58.4617 44.3881C59.8486 44.8476 59.7008 45.1111 61.1951 44.3289C62.2318 43.7856 62.6226 43.2016 63.6532 42.8523L64.0156 42.3071C61.2721 41.2696 60.3103 43.269 58.0668 43.753" fill="white"/>
<path fill-rule="evenodd" clip-rule="evenodd" d="M62.9709 41.4228C64.3315 40.9817 64.3882 40.8346 65.5585 39.9932C66.5972 39.2437 66.5891 39.3397 67.6157 39.0252C68.2819 38.821 67.8546 39.1294 68.3386 38.7229C65.9837 36.4908 63.1794 38.7863 62.9688 41.4289" fill="white"/>
<path fill-rule="evenodd" clip-rule="evenodd" d="M61.27 50.0819C60.9542 50.5597 60.1017 50.8375 59.4741 50.9171C59.3315 51.0642 59.2138 51.234 59.1258 51.4195C59.8831 51.9321 60.5897 52.3099 61.8147 51.9505C62.9142 51.6278 63.2017 50.7885 63.882 50.5209C64.21 49.7245 64.4469 49.6693 64.6697 49.026C63.1673 48.7422 62.4424 49.6632 61.27 50.0839" fill="white"/>
<path fill-rule="evenodd" clip-rule="evenodd" d="M54.1144 40.4629C54.6571 39.5847 56.2303 39.5357 57.0929 38.9353C56.2607 37.9795 55.6371 38.2021 54.3473 37.9938C53.2276 38.9455 52.0309 39.3989 51.4154 41.1552C52.8044 41.194 53.0069 40.8714 54.1144 40.4629Z" fill="white"/>
<path fill-rule="evenodd" clip-rule="evenodd" d="M69.0756 43.6039C70.3228 43.5876 70.7561 44.2166 71.4264 44.8293C71.9062 44.5352 71.7058 44.5168 71.6592 43.7162C71.3494 41.1961 68.3811 41.5127 66.6863 42.0191C66.2166 42.7257 68.6868 43.4487 69.0756 43.6121" fill="white"/>
<path fill-rule="evenodd" clip-rule="evenodd" d="M40.5727 47.1758C42.2107 46.7061 41.4433 46.0566 42.395 45.493C42.9376 43.9572 43.7819 43.4854 44.2335 42.4133L42.6136 42.4929C42.0649 43.1056 41.4271 43.0035 40.8764 44.188C40.4593 45.0866 40.5301 46.3548 40.5565 47.1778" fill="white"/>
<path fill-rule="evenodd" clip-rule="evenodd" d="M72.1067 47.3535C71.9751 48.2847 71.9832 47.672 72.3213 47.8967H72.9935C74.5141 47.5965 75.3382 46.3568 75.5367 44.6985C75.5572 44.2242 75.6473 43.7555 75.8039 43.3078C74.1578 43.1505 73.2446 46.2486 72.1067 47.3514" fill="white"/>
<path fill-rule="evenodd" clip-rule="evenodd" d="M55.1106 47.6455C55.2706 49.075 55.2787 51.0744 54.5437 52.1527C54.491 52.5305 54.3959 52.4488 54.7462 52.4652C57.1759 51.9056 57.2711 49.8511 56.5685 47.4392C55.5946 47.6863 56.2384 47.6312 55.3536 47.5189L55.1106 47.6455Z" fill="white"/>
<path fill-rule="evenodd" clip-rule="evenodd" d="M48.6981 42.2601L49.0262 41.0777C49.0529 40.6042 49.1207 40.1341 49.2286 39.6726C49.4574 38.7536 49.8361 38.1327 50.3402 37.6916C49.7613 37.6024 49.1692 37.7056 48.6535 37.9856C48.1377 38.2656 47.7263 38.7072 47.4812 39.2437C47.2307 39.8726 47.1756 40.5635 47.3233 41.2247C47.5258 42.2458 47.6108 42.2683 48.7042 42.2622" fill="white"/>
<path fill-rule="evenodd" clip-rule="evenodd" d="M61.2801 40.4649C61.9645 40.951 61.8127 41.0082 62.5942 41.2042C62.7911 40.3731 63.1236 39.5808 63.5783 38.8597C64.1857 37.9326 64.6555 37.9632 65.1981 37.3179C62.7076 36.5377 61.1647 38.0674 61.2801 40.4649Z" fill="white"/>
<path fill-rule="evenodd" clip-rule="evenodd" d="M49.4878 44.2983C48.3802 44.964 47.5339 45.7115 47.1046 46.5856C47.6857 46.9471 48.1049 46.994 48.8439 46.7653C49.249 46.596 49.6421 46.3988 50.0203 46.1751L52.0694 44.5597L52.8469 44.1512L52.6141 43.657C50.972 43.6938 50.8646 43.4712 49.4858 44.3024" fill="white"/>
<path fill-rule="evenodd" clip-rule="evenodd" d="M65.3885 44.3983C65.2913 44.9191 65.1192 44.8436 64.5421 45.2969C64.1307 45.6525 63.6468 45.9126 63.1247 46.0587C63.2497 46.252 63.4174 46.4135 63.6147 46.5304C64.8296 46.8245 65.0321 46.6979 66.1194 46.3671C66.5851 46.0097 66.9091 45.6645 67.2938 45.3643L66.9617 43.704L65.3885 44.3983Z" fill="white"/>
<path fill-rule="evenodd" clip-rule="evenodd" d="M39.54 42.9892C39.1128 43.7326 39.3193 43.4732 38.6511 43.7857L38.3231 44.8374C38.7949 45.4746 39.4185 46.267 40.0543 46.6571C40.0057 45.0784 40.194 44.1104 41.0809 43.0913C40.8602 42.6829 41.4393 42.8687 40.3702 42.8524L39.54 42.9892Z" fill="white"/>
<path fill-rule="evenodd" clip-rule="evenodd" d="M75.812 45.1703C75.7898 46.1199 75.4516 46.8041 74.8786 47.2452C75.2694 47.9845 74.6761 47.3963 75.3423 47.5454C75.5603 47.5729 75.7816 47.5513 75.9902 47.4821C76.3547 47.3219 76.6954 47.1116 77.0026 46.8572L77.7963 45.5175L77.2253 44.9783C76.7718 44.3943 76.5551 44.5005 76.1178 43.753L75.812 45.1703Z" fill="white"/>
<path fill-rule="evenodd" clip-rule="evenodd" d="M58.9213 50.28C58.9213 50.6435 58.8403 50.5312 59.227 50.5537L61.2518 49.941C61.7357 49.3283 61.4178 49.6796 62.0334 49.3161C62.5841 48.9913 62.3675 49.2201 62.7583 48.7708C61.9686 48.0478 61.4401 48.1459 60.3062 48.3399C60.2111 48.683 60.3265 48.5196 60.039 48.8504C59.8243 49.0955 59.8365 48.9832 59.5773 49.2589C59.2776 49.5836 59.1946 49.847 58.9112 50.28" fill="white"/>
<path fill-rule="evenodd" clip-rule="evenodd" d="M46.0983 48.3541C47.785 48.5032 48.032 48.3113 49.5404 48.0376C49.5377 47.8476 49.514 47.6586 49.4696 47.4739L46.5357 47.1921L44.7559 47.1451C45.094 47.9069 44.6729 47.4474 45.4241 47.962C45.7703 48.1949 45.7885 48.105 46.1024 48.3705" fill="white"/>
<path fill-rule="evenodd" clip-rule="evenodd" d="M60.612 46.7673L60.5512 45.9994C58.0668 44.8803 58.7289 44.8108 58.4576 45.3398C59.065 46.2036 59.1784 47.3371 59.5348 48.3419C59.9053 48.1581 59.636 48.395 59.9398 48.0886C59.9398 48.0886 60.2172 47.7292 60.2293 47.7088C60.3826 47.4058 60.5099 47.0901 60.61 46.7653" fill="white"/>
<path fill-rule="evenodd" clip-rule="evenodd" d="M45.4362 40.2485L45.1527 41.8312L46.7726 41.9823C47.0864 41.821 47.1269 42.2621 46.9507 41.5943C46.8588 41.1482 46.8114 40.6939 46.809 40.2383C46.809 40.1586 46.8434 39.6869 46.8394 39.6623C46.7442 38.9945 47.0155 39.5235 46.5458 39.1171C46.2112 39.5231 45.8449 39.9014 45.4504 40.2485" fill="white"/>
<path fill-rule="evenodd" clip-rule="evenodd" d="M52.7072 47.2432C52.1727 47.766 52.0674 47.4474 52.1646 47.9641C53.3491 48.6544 53.503 47.5761 54.734 47.2616L55.139 46.5835C55.4326 45.9239 55.3415 46.0076 56.0117 45.7278C55.6351 45.4276 55.8699 45.4705 55.22 45.7115C54.9176 45.8416 54.624 45.9917 54.3412 46.1608C53.588 46.6775 53.4726 46.9205 52.7052 47.2432" fill="white"/>
<path fill-rule="evenodd" clip-rule="evenodd" d="M59.2635 39.1538C59.5793 39.74 59.8304 40.0688 60.6201 40.3159C60.6505 40.2607 60.693 40.1116 60.7031 40.1464C60.7132 40.1811 60.7638 40.0197 60.776 39.9748L60.9785 38.87C61.1121 38.3655 61.3369 38.0531 61.5029 37.5895C60.288 37.8264 59.796 38.1776 59.2594 39.1538" fill="white"/>
<path fill-rule="evenodd" clip-rule="evenodd" d="M72.3395 45.2316C72.3395 45.3051 72.3395 45.64 72.3395 45.6952C72.5279 46.3078 72.05 45.8034 72.5846 46.1955C72.9774 45.4399 73.6354 44.5617 73.9128 43.6774L72.2565 43.9082L72.3395 45.2316Z" fill="white"/>
<path fill-rule="evenodd" clip-rule="evenodd" d="M55.7606 46.4243L55.3556 47.5209C56.2445 47.6312 55.5986 47.6864 56.5705 47.4413L56.5098 46.6428C56.1979 46.3262 56.3721 46.5488 56.0157 46.3528L55.7606 46.4243Z" fill="white"/>
<path fill-rule="evenodd" clip-rule="evenodd" d="M55.4609 44.1124C56.2506 45.0416 56.2931 44.8068 56.9896 44.2023L55.4467 43.4834L55.4609 44.1124Z" fill="white"/>
<path fill-rule="evenodd" clip-rule="evenodd" d="M66.336 46.4405L66.0384 46.7326L66.1639 47.2717C66.9455 46.9899 67.067 46.9062 67.2411 46.2016C66.6539 46.3466 66.9941 46.3303 66.3381 46.4405" fill="white"/>
<path fill-rule="evenodd" clip-rule="evenodd" d="M65.8056 47.3167L66.168 47.2718L66.0425 46.7326C65.6213 47.0941 65.9109 46.6305 65.8056 47.3167Z" fill="white"/>
<path fill-rule="evenodd" clip-rule="evenodd" d="M59.1238 51.4175C59.2118 51.2319 59.3294 51.0622 59.472 50.9151L58.9456 51.0356L59.1238 51.4175Z" fill="white"/>
<path fill-rule="evenodd" clip-rule="evenodd" d="M59.225 50.5516C58.8362 50.5291 58.9192 50.6415 58.9192 50.278L58.6074 50.7232L59.225 50.5516Z" fill="white"/>
<path fill-rule="evenodd" clip-rule="evenodd" d="M51.9783 45.2315C50.9902 45.8258 50.2349 46.4916 49.8523 47.2738C50.3706 47.5965 50.7432 47.6353 51.4053 47.4331C51.7665 47.2819 52.1169 47.1059 52.4541 46.9062L54.2764 45.4664L54.9709 45.0968L54.7684 44.6556C53.3045 44.6883 53.2073 44.4882 51.9783 45.2315Z" fill="white"/>
<path fill-rule="evenodd" clip-rule="evenodd" d="M46.7381 44.0267C45.9019 44.7047 45.2904 45.4195 45.0393 46.1914C45.5597 46.4222 45.91 46.4079 46.4931 46.1363C46.8073 45.9498 47.1083 45.7416 47.3942 45.5134L48.8966 43.9429L49.4898 43.51L49.2408 43.1301C47.8923 43.3527 47.7769 43.1812 46.7381 44.0287" fill="white"/>
<path fill-rule="evenodd" clip-rule="evenodd" d="M89.2931 35.9128L73.8095 36.0783L74.3663 39.5011C76.6665 39.5889 78.991 39.5419 81.279 39.5296C83.5062 39.5194 85.8975 38.8884 86.2883 42.7666C83.6723 43.1138 78.0919 42.0825 76.0327 43.2608L76.0125 45.8259L77.4298 46.7898C77.5052 46.8401 77.5733 46.9006 77.6323 46.9695C77.6323 50.8498 77.4764 94.1902 77.5412 96.4101C77.6242 99.2529 78.2681 104.659 79.6774 99.7635L79.7543 48.9117C83.4212 51.0009 81.5462 88.9396 82.0443 94.5783C82.2347 96.7451 83.7715 95.4687 84.1278 90.8348L84.2048 51.873C85.4196 52.3896 86.1526 55.0425 86.3328 58.7002C86.7034 66.1911 86.6649 75.855 86.6264 81.4262C86.6973 92.2909 89.0562 86.2092 88.8537 78.3812C88.6067 68.2354 88.635 58.0671 88.5844 55.5449C90.1151 56.2515 90.4614 57.1542 90.6456 58.4571C90.7367 59.0984 90.7894 68.9257 90.923 75.6222C91.0607 82.4637 93.0814 83.205 93.0247 73.4145C92.9842 66.7895 93.1179 53.5496 93.1138 50.4495C93.1138 45.0069 92.7271 47.523 94.677 45.9974C94.8369 39.5072 96.888 40.8551 96.8577 36.1028L93.7577 36.0823L89.2931 35.9128Z" fill="white"/>
<path fill-rule="evenodd" clip-rule="evenodd" d="M26.8345 36.2845L42.318 36.4479L41.7632 39.8237C39.4631 39.9095 37.1386 39.8625 34.8506 39.8523C32.6234 39.8421 30.2321 39.2192 29.8413 43.0525C32.4573 43.3956 38.0376 42.3765 40.0968 43.5406L40.1171 46.077L38.6997 47.0308C38.6245 47.0804 38.5564 47.1402 38.4973 47.2084C38.4973 51.0519 38.6532 93.8736 38.5884 96.069C38.5054 98.8792 37.8615 104.22 36.4522 99.3836L36.3753 49.1445C32.7023 51.1969 34.5874 88.6904 34.0893 94.2617C33.899 96.404 32.3622 95.1398 32.0058 90.5611L31.9289 52.0485C30.714 52.5591 29.981 55.1813 29.8008 58.7879C29.4303 66.1911 29.4687 75.7385 29.5072 81.2526C29.4363 91.9907 27.0775 85.9783 27.2799 78.2423C27.527 68.2149 27.4986 58.1651 27.5492 55.6756C26.0185 56.374 25.6723 57.2665 25.488 58.5551C25.3969 59.1903 25.3442 68.9011 25.2106 75.52C25.0729 82.2798 23.0522 83.015 23.1089 73.3389C23.1494 66.7915 23.0157 53.7068 23.0198 50.6435C23.0198 45.2642 23.4065 47.7517 21.4567 46.2425C21.2927 39.8237 19.2355 41.1634 19.2699 36.4662L22.3698 36.4458L26.8345 36.2845Z" fill="white"/>
<path d="M58.0162 103.337C47.7906 103.337 37.8813 99.7612 29.9768 93.2182C22.0723 86.6751 16.6616 77.5702 14.6667 67.4546C12.6718 57.339 14.216 46.8387 19.0362 37.7427C23.8565 28.6467 31.6546 21.5179 41.1018 17.5709C50.549 13.6239 61.0608 13.1029 70.8461 16.0967C80.6315 19.0904 89.0849 25.4138 94.7662 33.9892C100.447 42.5647 103.005 52.8618 102.003 63.1259C101.001 73.39 96.5012 82.9862 89.2708 90.2793C85.176 94.4323 80.3052 97.7247 74.9404 99.9662C69.5755 102.208 63.8231 103.353 58.0162 103.337ZM58.0162 14.7858C33.9779 14.7899 14.4226 34.5139 14.4226 58.7594C14.4226 83.0049 33.9779 102.725 58.0162 102.725C82.0545 102.725 101.612 82.9987 101.612 58.7533C101.612 34.5078 82.0545 14.7899 58.0162 14.7899V14.7858Z" fill="white"/>
<path d="M58.0162 113.788C47.2261 113.787 36.6784 110.56 27.7068 104.513C18.7353 98.4667 11.7427 89.8728 7.61346 79.8182C3.48419 69.7635 2.40359 58.6996 4.50832 48.0255C6.61305 37.3515 11.8086 27.5465 19.4379 19.8506C24.4947 14.6984 30.511 10.6048 37.1412 7.80506C43.7714 5.00531 50.8847 3.55456 58.0725 3.53619C65.2602 3.51781 72.3808 4.93217 79.0249 7.698C85.6691 10.4638 91.7059 14.5266 96.7885 19.6529C101.871 24.7792 105.899 30.8679 108.642 37.5693C111.384 44.2706 112.786 51.4525 112.768 58.7022C112.75 65.952 111.312 73.1266 108.537 79.814C105.761 86.5014 101.702 92.5697 96.5945 97.6702C91.5401 102.796 85.528 106.86 78.906 109.627C72.284 112.393 65.1838 113.807 58.0162 113.788ZM58.0162 3.87824C28.0129 3.88028 3.60412 28.4975 3.60412 58.7594C3.60412 89.0213 28.0129 113.643 58.0162 113.643C88.0195 113.643 112.43 89.0213 112.43 58.7594C112.43 28.4975 88.0215 3.88028 58.0162 3.88028V3.87824Z" fill="white"/>
<path fill-rule="evenodd" clip-rule="evenodd" d="M72.0358 91.4148C71.8738 91.5475 71.7463 91.6558 71.6632 91.7334C72.6655 91.6905 72.8154 90.8491 73.7852 90.5285C74.9252 90.1527 75.6602 90.5693 76.6908 90.9471C76.4336 91.3556 76.622 91.427 75.976 91.8886C75.6029 92.1702 75.1853 92.3863 74.7409 92.5278C72.8923 93.0241 72.2322 91.3494 70.3593 92.5523C69.9665 92.8035 69.598 92.9975 69.1444 93.2303C68.4702 93.5837 67.1723 93.9778 66.6519 94.372C67.6643 94.5456 67.97 93.6511 69.3692 93.7593C69.8585 93.7946 70.3306 93.9563 70.7399 94.229C71.1348 94.4639 71.5499 94.7294 71.7726 95.148C70.9748 95.0765 70.2742 95.0908 69.4562 95.0051C68.7476 94.9315 67.8587 94.6967 67.2816 94.6558C68.1077 95.1889 70.7541 95.0806 71.7989 95.2093C71.394 95.6729 70.1912 96.1038 69.3287 96.0405C67.8688 95.9322 67.6724 95.0193 66.9556 94.8151C65.6942 94.4455 65.1738 94.8396 64.0339 95.0745C63.0215 95.2787 62.1265 95.3481 61.102 95.4972C61.758 95.971 62.661 95.1603 63.9772 95.8322C64.7223 96.212 65.5686 97.2291 65.7043 97.8948C64.4651 97.5456 63.4386 96.8737 62.3351 96.4244C62.9708 96.9452 63.9387 97.2883 64.7203 97.5905C65.0645 97.7233 65.3884 97.8274 65.6193 98.0929C63.6896 98.1889 62.3533 98.0929 61.5474 96.4326C61.0999 95.5054 59.9033 95.5136 58.9719 95.5299C59.5267 96.1283 60.533 95.971 60.3487 96.7553C59.0833 96.163 58.488 95.7607 57.7631 95.6565L57.9089 95.1684C58.6726 95.192 59.437 95.1749 60.1989 95.1174C62.0516 94.811 60.7497 91.5986 65.0584 91.6823C64.8559 91.9907 64.9146 91.8396 64.6534 92.0908C64.9956 91.8763 64.779 91.9621 65.1677 91.8518C64.1553 95.7158 61.9281 94.1861 61.025 95.0867C61.9827 95.0593 62.9354 94.9383 63.8698 94.7253C64.783 94.5313 65.7185 94.4802 66.17 93.6265C66.8098 92.4196 66.0526 91.2351 68.1948 90.0894C68.3709 89.9954 68.5835 89.8852 68.7921 89.7953C68.8918 89.7521 68.9956 89.7193 69.1019 89.6973L69.3044 89.7238C69.8045 89.8218 69.2598 92.538 67.4821 93.3488C66.7977 93.6592 66.7552 93.3692 66.3684 93.9941C67.0407 93.8471 68.3284 93.2222 68.8933 92.9301C69.27 92.7259 69.7033 92.4768 70.0191 92.2827C70.5091 91.9887 70.7865 92.0193 71.0457 91.374C71.5883 90.022 70.2155 89.1275 72.3436 87.0403C72.6392 86.7503 72.8336 86.6727 73.1697 86.7442L73.2628 86.7585C74.1112 90.0363 71.7564 90.4039 71.4648 91.3025C71.614 91.2542 71.7518 91.1757 71.8698 91.0717L72.0358 91.4148Z" fill="white"/>
<path fill-rule="evenodd" clip-rule="evenodd" d="M43.8933 91.4148C44.0553 91.5475 44.1829 91.6558 44.2659 91.7334C43.2636 91.6905 43.1138 90.8491 42.1439 90.5284C41.0039 90.1527 40.2689 90.5693 39.2383 90.9471C39.4955 91.3556 39.3072 91.427 39.9531 91.8886C40.3262 92.1702 40.7438 92.3863 41.1882 92.5278C43.0368 93.0241 43.6969 91.3494 45.5698 92.5523C45.9626 92.8035 46.3312 92.9975 46.7847 93.2303C47.459 93.5836 48.7568 93.9778 49.2772 94.3719C48.2648 94.5455 47.9591 93.651 46.56 93.7593C46.0706 93.7945 45.5985 93.9563 45.1892 94.229C44.7943 94.4638 44.3793 94.7293 44.1586 95.148C44.9563 95.0765 45.6569 95.0908 46.4749 95.005C47.1836 94.9315 48.0725 94.6967 48.6495 94.6558C47.8234 95.1888 45.177 95.0806 44.1322 95.2093C44.5372 95.6729 45.7399 96.1038 46.6025 96.0405C48.0623 95.9322 48.2588 95.0193 48.9755 94.8151C50.237 94.4455 50.7573 94.8396 51.8973 95.0745C52.9097 95.2787 53.8046 95.3481 54.8292 95.4972C54.1732 95.971 53.2701 95.1603 51.954 95.8321C51.2089 96.212 50.3625 97.229 50.2268 97.8948C51.466 97.5456 52.4926 96.8737 53.5961 96.4244C52.9603 96.9452 51.9925 97.2883 51.2109 97.5905C50.8667 97.7233 50.5427 97.8274 50.3119 98.0929C52.2415 98.1889 53.5779 98.0929 54.3837 96.4326C54.8312 95.5054 56.0279 95.5136 56.9593 95.5299C56.4045 96.1283 55.3981 95.971 55.5824 96.7552C56.8479 96.163 57.4452 95.7607 58.1681 95.6565L58.0344 95.1827C57.2707 95.2063 56.5063 95.1892 55.7444 95.1317C53.8917 94.8253 55.1936 91.6129 50.8849 91.6966C51.0874 92.005 51.0287 91.8539 51.2899 92.1051C50.9477 91.8906 51.1643 91.9764 50.7756 91.8661C51.788 95.73 54.0152 94.2004 54.9162 95.101C53.9586 95.0736 53.0059 94.9526 52.0714 94.7395C51.1582 94.5455 50.2228 94.4945 49.7713 93.6408C49.1314 92.4339 49.8887 91.2494 47.7465 90.1037C47.5703 90.0097 47.3577 89.8994 47.1492 89.8096C47.0495 89.7664 46.9457 89.7336 46.8394 89.7116L46.6369 89.7381C46.1368 89.8361 46.6814 92.5523 48.4592 93.3631C49.1436 93.6735 49.1861 93.3835 49.5728 94.0084C48.9006 93.8614 47.6128 93.2365 47.0479 92.9444C46.6713 92.7402 46.238 92.491 45.9221 92.297C45.4321 92.0029 45.1548 92.0336 44.8956 91.3882C44.3529 90.0363 45.7237 89.1418 43.5977 87.0546C43.3021 86.7646 43.1077 86.687 42.7716 86.7585L42.6784 86.7728C41.8301 90.0506 44.1849 90.4182 44.4765 91.3168C44.3273 91.2685 44.1895 91.19 44.0715 91.086L43.8933 91.4148Z" fill="white"/>
</g>
<path d="M144.25 27.9062C145.938 28.7031 146.875 30.1562 146.875 32.125C146.875 35.1719 144.625 37 140.781 37H132.391V19.1875H140.734C144.391 19.1875 146.547 20.9688 146.547 23.9219C146.547 25.75 145.703 27.1094 144.25 27.9062ZM140.078 22.4219H136.234V26.3594H140.078C141.766 26.3594 142.609 25.7031 142.609 24.3906C142.609 23.0781 141.766 22.4219 140.078 22.4219ZM140.125 33.7656C141.953 33.7656 142.891 33.0625 142.891 31.6094C142.891 30.1562 141.953 29.4531 140.125 29.4531H136.234V33.7656H140.125ZM159.344 22.9375H163.047V37H159.391V28.3281L153.625 37H149.922V22.9375H153.578V31.6094L159.344 22.9375ZM186.766 33.625H188.641V40.2812H185.031V37H166.891V22.9375H170.641V33.625H174.953V22.9375H178.703V33.625H183.016V22.9375H186.766V33.625ZM203.312 33.7656H203.875V37C203.594 37.0469 203.219 37.0938 202.516 37.0938C200.781 37.0938 199.844 36.4375 199.562 34.9844C198.578 36.3906 196.75 37.2344 194.688 37.2344C191.922 37.2344 190.094 35.5938 190.094 33.1562C190.094 29.5 193.516 28.8438 196.141 28.5156C197.734 28.3281 199 28.0938 199 27.25C199 26.3594 198.062 25.75 196.469 25.75C195.016 25.75 193.703 26.3125 192.625 27.3906L190.375 25.0938C192.062 23.5 194.172 22.7031 196.703 22.7031C200.359 22.7031 202.516 24.4844 202.516 27.4375V32.9688C202.516 33.4844 202.797 33.7656 203.312 33.7656ZM195.531 34.2812C197.406 34.2812 198.906 33.0625 198.906 31.5156V30.2969C198.344 30.625 197.547 30.7656 196.516 30.9531C195.062 31.1875 193.703 31.4219 193.703 32.7812C193.703 33.7188 194.359 34.2812 195.531 34.2812ZM234.156 19.1875H238.188V37H214.656V19.1875H218.688V33.3438H224.406V19.1875H228.438V33.3438H234.156V19.1875ZM254.922 33.7188H255.531V37C254.922 37.0469 254.547 37.0469 253.891 37.0469C251.781 37.0469 250.609 36.0625 250.609 34V31.5156H246.25V37H242.5V18.25H246.25V28.0938H248.078L251.453 22.9375H255.391L251.828 28.0938H254.219V33.0156C254.219 33.4375 254.5 33.7188 254.922 33.7188ZM264.156 37.2344C259.703 37.2344 256.797 34.375 256.797 29.9688C256.797 25.6094 259.75 22.7031 264.156 22.7031C268.609 22.7031 271.516 25.5625 271.516 29.9688C271.516 34.3281 268.562 37.2344 264.156 37.2344ZM264.156 34.1406C266.312 34.1406 267.672 32.5938 267.672 29.9688C267.672 27.3438 266.312 25.7969 264.156 25.7969C262 25.7969 260.641 27.3438 260.641 29.9688C260.641 32.5938 262 34.1406 264.156 34.1406ZM286.75 22.9375V37H283V26.3125H278.406V30.4375C278.406 35.4531 277.234 37.0938 274.094 37.0938C273.531 37.0938 272.969 37.0469 272.5 37V33.625H273.391C274.422 33.625 274.703 33.1094 274.703 30.0625V22.9375H286.75ZM302.781 33.7656H303.344V37C303.062 37.0469 302.688 37.0938 301.984 37.0938C300.25 37.0938 299.312 36.4375 299.031 34.9844C298.047 36.3906 296.219 37.2344 294.156 37.2344C291.391 37.2344 289.562 35.5938 289.562 33.1562C289.562 29.5 292.984 28.8438 295.609 28.5156C297.203 28.3281 298.469 28.0938 298.469 27.25C298.469 26.3594 297.531 25.75 295.938 25.75C294.484 25.75 293.172 26.3125 292.094 27.3906L289.844 25.0938C291.531 23.5 293.641 22.7031 296.172 22.7031C299.828 22.7031 301.984 24.4844 301.984 27.4375V32.9688C301.984 33.4844 302.266 33.7656 302.781 33.7656ZM295 34.2812C296.875 34.2812 298.375 33.0625 298.375 31.5156V30.2969C297.812 30.625 297.016 30.7656 295.984 30.9531C294.531 31.1875 293.172 31.4219 293.172 32.7812C293.172 33.7188 293.828 34.2812 295 34.2812ZM144.25 58.9062C145.938 59.7031 146.875 61.1562 146.875 63.125C146.875 66.1719 144.625 68 140.781 68H132.391V50.1875H140.734C144.391 50.1875 146.547 51.9688 146.547 54.9219C146.547 56.75 145.703 58.1094 144.25 58.9062ZM140.078 53.4219H136.234V57.3594H140.078C141.766 57.3594 142.609 56.7031 142.609 55.3906C142.609 54.0781 141.766 53.4219 140.078 53.4219ZM140.125 64.7656C141.953 64.7656 142.891 64.0625 142.891 62.6094C142.891 61.1562 141.953 60.4531 140.125 60.4531H136.234V64.7656H140.125ZM159.203 53.9375H162.953V68H159.203V62.5156H153.672V68H149.922V53.9375H153.672V59.1406H159.203V53.9375ZM176.688 53.9375H180.672L176.219 67.4844C174.953 71.2812 173.219 72.9219 170.5 72.9219C167.688 72.9219 165.812 71.0938 165.812 68.3281C165.812 66.9688 166.281 65.8438 167.266 64.7656H169.234L165.062 53.9375H169.094L172.797 64.7656H173.547L176.688 53.9375ZM170.5 69.875C171.438 69.875 172.047 69.2656 172.422 68.0469L172.609 67.4375H169.234C169.094 67.7656 169 68.0938 169 68.4688C169 69.3125 169.609 69.875 170.5 69.875ZM194.922 53.9375V57.3125H190.047V68H186.297V57.3125H181.422V53.9375H194.922ZM205.422 53.7031C209.078 53.7031 211.422 56.5625 211.422 60.9688C211.422 65.3281 208.984 68.2344 205.422 68.2344C203.594 68.2344 202.141 67.5312 201.062 66.3594V72.6875H197.312V53.9375H200.688L200.875 55.9062C201.953 54.5 203.5 53.7031 205.422 53.7031ZM204.25 65.1406C206.359 65.1406 207.625 63.5469 207.625 60.9688C207.625 58.3906 206.359 56.7969 204.25 56.7969C202.141 56.7969 200.922 58.3906 200.922 60.9688C200.922 63.5469 202.141 65.1406 204.25 65.1406ZM214.375 52.1562V48.9688H218.406V52.1562H214.375ZM214.516 68V53.9375H218.266V68H214.516ZM238.469 53.9375H242.219V68H222.344V53.9375H226.094V64.625H230.406V53.9375H234.156V64.625H238.469V53.9375ZM255.344 53.9375H259.094V68H255.344V62.5156H249.812V68H246.062V53.9375H249.812V59.1406H255.344V53.9375ZM269.922 58.7188C273.344 58.7188 275.359 60.4531 275.359 63.3594C275.359 66.2188 273.297 68 269.922 68H262.938V53.9375H266.688V58.7188H269.922ZM269.359 65.0938C270.812 65.0938 271.562 64.4844 271.562 63.3125C271.562 62.1406 270.812 61.5312 269.359 61.5312H266.688V65.0938H269.359ZM284.453 68.2344C280 68.2344 277.094 65.375 277.094 60.9688C277.094 56.6094 280.047 53.7031 284.453 53.7031C288.906 53.7031 291.812 56.5625 291.812 60.9688C291.812 65.3281 288.859 68.2344 284.453 68.2344ZM284.453 65.1406C286.609 65.1406 287.969 63.5938 287.969 60.9688C287.969 58.3438 286.609 56.7969 284.453 56.7969C282.297 56.7969 280.938 58.3438 280.938 60.9688C280.938 63.5938 282.297 65.1406 284.453 65.1406ZM292.141 52.1562V48.9688H295.984V52.1562H292.141ZM297.578 52.1562V48.9688H301.422V52.1562H297.578ZM294.906 68V53.9375H298.656V68H294.906ZM318.578 57.0312C322.656 57.0312 325.094 59.0938 325.094 62.4219C325.094 65.9375 322.656 68 318.578 68H310.703V50.1875H323.641V53.6562H314.734L314.688 57.0312H318.578ZM318.109 64.7656C320.031 64.7656 321.016 63.9219 321.016 62.4219C321.016 60.9688 320.031 60.125 318.109 60.125H314.688L314.641 64.7656H318.109ZM330.766 62.1875C331.141 64.0625 332.453 65.1406 334.469 65.1406C336.156 65.1406 337.422 64.5312 338.312 63.5469L340.609 65.7969C339.203 67.2969 337.141 68.2344 334.422 68.2344C329.547 68.2344 327.062 65.1406 327.062 60.9688C327.062 56.6562 329.875 53.7031 334.188 53.7031C338.453 53.7031 341.172 56.5625 341.172 60.9688C341.172 61.25 341.172 61.5312 341.031 62.1875H330.766ZM334.188 56.7031C332.453 56.7031 331.234 57.7344 330.812 59.4688H337.422C337.047 57.6875 335.922 56.7031 334.188 56.7031ZM352.656 60.7344C354.109 61.2969 354.953 62.4688 354.953 63.9688C354.953 66.4531 352.328 68.2344 348.625 68.2344C345.766 68.2344 343.422 67.0156 342.297 64.7656L345.156 63.1719C345.859 64.5312 347.078 65.2344 348.672 65.2344C350.219 65.2344 351.203 64.625 351.203 63.6406C351.203 62.75 350.406 62.1875 349.047 62.1875H347.125V59.6094H348.953C350.031 59.6094 350.781 59.0469 350.781 58.1562C350.781 57.2188 349.984 56.7031 348.625 56.7031C347.172 56.7031 346 57.3594 345.25 58.5781L342.766 56.6562C344.031 54.7812 346.188 53.7031 348.859 53.7031C352.188 53.7031 354.391 55.3438 354.391 57.8281C354.391 59.1406 353.781 60.125 352.656 60.7344ZM370.609 53.9375V68H366.859V57.3125H361.328V68H357.578V53.9375H370.609ZM377.172 62.1875C377.547 64.0625 378.859 65.1406 380.875 65.1406C382.562 65.1406 383.828 64.5312 384.719 63.5469L387.016 65.7969C385.609 67.2969 383.547 68.2344 380.828 68.2344C375.953 68.2344 373.469 65.1406 373.469 60.9688C373.469 56.6562 376.281 53.7031 380.594 53.7031C384.859 53.7031 387.578 56.5625 387.578 60.9688C387.578 61.25 387.578 61.5312 387.438 62.1875H377.172ZM380.594 56.7031C378.859 56.7031 377.641 57.7344 377.219 59.4688H383.828C383.453 57.6875 382.328 56.7031 380.594 56.7031ZM402.812 64.7188H403.422V68C402.812 68.0469 402.438 68.0469 401.781 68.0469C399.672 68.0469 398.5 67.0625 398.5 65V62.5156H394.141V68H390.391V49.25H394.141V59.0938H395.969L399.344 53.9375H403.281L399.719 59.0938H402.109V64.0156C402.109 64.4375 402.391 64.7188 402.812 64.7188ZM415.562 53.9375H419.266V68H415.609V59.3281L409.844 68H406.141V53.9375H409.797V62.6094L415.562 53.9375Z" fill="white"/>
<path d="M144.098 89.4531V100H142.059V91.668L139 100H136.75L133.691 91.668V100H131.652V89.4531H134.887L137.91 97.6445L140.898 89.4531H144.098ZM147.191 100V97.2578H149.934V100H147.191ZM170.078 86.6406V100H167.828V88.6797H162.168V92.8281C162.168 98.207 161.676 100.07 159.109 100.07C158.758 100.07 158.371 100.07 157.844 100V97.8906H158.441C159.672 97.8906 159.953 97.7148 159.953 92.6875V86.6406H170.078ZM178.305 100.176C175.07 100.176 172.961 98.0312 172.961 94.7266C172.961 91.4922 175.141 89.2773 178.305 89.2773C181.539 89.2773 183.648 91.4219 183.648 94.7266C183.648 97.9609 181.469 100.176 178.305 100.176ZM178.305 98.3828C180.238 98.3828 181.504 96.9414 181.504 94.7266C181.504 92.5117 180.238 91.0703 178.305 91.0703C176.371 91.0703 175.105 92.5117 175.105 94.7266C175.105 96.9414 176.371 98.3828 178.305 98.3828ZM195.039 98.1367H196.445V102.461H194.441V100H186.848V102.461H184.844V98.1367H186.074C186.285 97.293 186.391 95.9219 186.391 93.8477V89.4531H195.039V98.1367ZM188.113 98.1367H192.965V91.3164H188.43V93.9531C188.43 95.6406 188.324 97.082 188.113 98.1367ZM204.637 94.5508C205.832 94.9375 206.465 95.8164 206.465 97.0117C206.465 98.875 204.672 100.176 202 100.176C199.82 100.176 198.168 99.1211 197.465 97.3633L199.223 96.5898C199.785 97.7852 200.77 98.418 202.035 98.418C203.441 98.418 204.32 97.8555 204.32 96.9062C204.32 96.0273 203.547 95.4648 202.246 95.4648H200.91V93.8125H202.176C203.301 93.8125 203.934 93.2852 203.934 92.4414C203.934 91.5273 203.23 91 202.07 91C200.875 91 199.996 91.5977 199.539 92.6875L197.816 91.7734C198.555 90.2266 200.137 89.2773 202.141 89.2773C204.461 89.2773 205.973 90.4727 206.008 92.3359C206.008 93.3555 205.551 94.0938 204.637 94.5508ZM213.707 93.4258C216.062 93.4258 217.504 94.6914 217.504 96.6953C217.504 98.6992 216.027 100 213.707 100H208.715V89.4531H210.824V93.4258H213.707ZM213.496 98.2422C214.727 98.2422 215.359 97.6797 215.359 96.6953C215.359 95.7109 214.727 95.1484 213.496 95.1484H210.824V98.2422H213.496ZM219.613 102.531V101.23H219.965C220.668 101.23 220.949 100.879 220.949 100.07V100H219.613V97.2578H222.355V99.7891C222.355 101.652 221.406 102.531 220 102.531H219.613ZM242.535 86.6406V100H240.32V88.6797H233.641V100H231.426V86.6406H242.535ZM250.762 100.176C247.527 100.176 245.418 98.0312 245.418 94.7266C245.418 91.4922 247.598 89.2773 250.762 89.2773C253.996 89.2773 256.105 91.4219 256.105 94.7266C256.105 97.9609 253.926 100.176 250.762 100.176ZM250.762 98.3828C252.695 98.3828 253.961 96.9414 253.961 94.7266C253.961 92.5117 252.695 91.0703 250.762 91.0703C248.828 91.0703 247.562 92.5117 247.562 94.7266C247.562 96.9414 248.828 98.3828 250.762 98.3828ZM267.461 89.4531V100H265.352V91.3164H260.992V95.1133C260.992 98.9453 260.184 100.07 258.145 100.07C257.758 100.07 257.406 100.035 257.16 100V98.0664H257.723C258.637 98.0664 258.918 97.8203 258.918 94.9023V89.4531H267.461ZM275.758 93.4258C278.113 93.4258 279.555 94.6914 279.555 96.6953C279.555 98.6992 278.078 100 275.758 100H270.766V89.4531H272.875V93.4258H275.758ZM275.547 98.2422C276.777 98.2422 277.41 97.6797 277.41 96.6953C277.41 95.7109 276.777 95.1484 275.547 95.1484H272.875V98.2422H275.547ZM296.219 98.1367H297.59V102.461H295.586V100H281.875V89.4531H283.984V98.1367H287.992V89.4531H290.102V98.1367H294.109V89.4531H296.219V98.1367ZM308.312 98.1719H308.699V100C308.594 100.035 308.312 100.07 307.961 100.07C306.66 100.07 306.062 99.6133 305.922 98.3828C305.184 99.4727 303.777 100.176 302.23 100.176C300.156 100.176 298.785 98.9102 298.785 97.082C298.785 94.4805 301.281 93.918 303.32 93.6016C304.902 93.3906 305.676 93.25 305.676 92.4414C305.676 91.5977 304.797 91.0352 303.461 91.0352C302.266 91.0352 301.141 91.5625 300.297 92.4414L298.996 91.0703C300.227 89.9102 301.738 89.2773 303.566 89.2773C306.098 89.2773 307.645 90.5781 307.645 92.7578V97.5039C307.645 97.9609 307.855 98.1719 308.312 98.1719ZM302.582 98.4531C304.199 98.4531 305.605 97.3281 305.605 95.9922V94.6211C305.219 94.8672 304.586 94.9727 303.566 95.1484C302.23 95.3594 300.859 95.5703 300.859 96.9414C300.859 97.9258 301.492 98.4531 302.582 98.4531Z" fill="white"/>
<defs>
<clipPath id="clip0_211_1537">
<rect width="116" height="117" fill="white"/>
</clipPath>
</defs>
</svg>
